<svg width="28" height="27" viewBox="0 0 28 27" fill="none" xmlns="http://www.w3.org/2000/svg">
<path d="M14 0C6.2804 0 0 5.14387 0 11.4666C0 15.1923 2.1653 18.6305 5.82882 20.7828C5.32054 23.1589 4.18145 24.8264 4.16897 24.8444L2.92367 26.6282L5.08357 26.3513C5.33237 26.3193 11.127 25.5513 15.2571 22.8871C18.6488 22.6402 21.7989 21.396 24.1525 19.3686C26.6336 17.2312 28 14.425 28 11.4667C28 5.14387 21.7196 0 14 0ZM14.8848 20.9786L14.6213 20.9936L14.4022 21.1409C12.0004 22.7543 8.78515 23.6493 6.76245 24.087C7.18676 23.1385 7.63268 21.8775 7.85525 20.4217L7.95928 19.7413L7.34968 19.4217C3.95527 17.6429 1.92871 14.6693 1.92871 11.4666C1.92871 6.20749 7.34389 1.92871 14 1.92871C20.6561 1.92871 26.0713 6.20736 26.0713 11.4666C26.0713 16.4403 21.1576 20.6184 14.8848 20.9786Z" fill="#B18B1E"/>
</svg>
