<?xml version="1.0" encoding="iso-8859-1"?>
<!-- Generator: Adobe Illustrator 19.0.0, SVG Export Plug-In . SVG Version: 6.00 Build 0)  -->
<svg version="1.1" id="Layer_1" xmlns="http://www.w3.org/2000/svg" xmlns:xlink="http://www.w3.org/1999/xlink" x="0px" y="0px"
	 viewBox="0 0 512 512" style="enable-background:new 0 0 512 512;" xml:space="preserve">
<polygon style="fill:#FFE6B8;" points="501.801,98.221 142.319,98.221 142.319,66.811 64.716,66.811 64.716,98.221 10.199,98.221 
	10.199,358.782 501.801,358.782 "/>
<rect x="200.241" y="358.777" style="fill:#CCCCCC;" width="111.508" height="73.169"/>
<polygon style="fill:#D35B38;" points="64.716,98.221 64.716,66.811 142.319,66.811 142.319,98.221 501.801,98.221 501.801,36.201 
	10.199,36.201 10.199,98.221 "/>
<circle style="fill:#CCCCCC;" cx="345.784" cy="321.234" r="80.604"/>
<path style="fill:#FFAD61;" d="M471.398,470.832l-57.545-57.545l23.985-23.985l57.545,57.545c6.623,6.623,6.623,17.362,0,23.985l0,0
	C488.76,477.455,478.021,477.455,471.398,470.832z"/>
<g>
	<path style="fill:#4D3D36;" d="M358.135,442.155c5.633,0,10.199-4.566,10.199-10.199s-4.566-10.199-10.199-10.199h-36.179v-12.901
		c7.596,2.068,15.584,3.178,23.826,3.178c21.367,0,41.031-7.423,56.559-19.82l9.08,9.08l-4.78,4.78
		c-1.912,1.912-2.987,4.507-2.987,7.212s1.075,5.3,2.987,7.212l57.545,57.545l0,0c5.129,5.13,11.949,7.955,19.205,7.955
		c7.255,0,14.075-2.825,19.205-7.955c10.589-10.589,10.589-27.819,0-38.409l-57.546-57.545c-3.982-3.983-10.441-3.982-14.424,0
		l-4.78,4.78l-9.08-9.08c2.241-2.806,4.317-5.747,6.218-8.809h78.816c5.633,0,10.199-4.566,10.199-10.199V36.201
		c0-5.633-4.566-10.199-10.199-10.199H10.199C4.566,26.002,0,30.568,0,36.201v322.581c0,5.633,4.566,10.199,10.199,10.199h179.845
		v52.776h-36.179c-5.633,0-10.199,4.566-10.199,10.199c0,5.633,4.566,10.199,10.199,10.199h204.27V442.155z M488.172,454.058
		c2.635,2.635,2.635,6.926,0,9.562c-1.277,1.277-2.975,1.981-4.78,1.981c-1.805,0-3.503-0.703-4.78-1.98l0,0l-50.333-50.333
		l9.562-9.562L488.172,454.058z M20.398,46.4h471.203v41.623H152.518V66.811c0-5.633-4.566-10.199-10.199-10.199H64.717
		c-5.633,0-10.199,4.566-10.199,10.199v21.211H20.398V46.4z M301.558,421.756h-91.116v-52.776h58.141
		c8.13,13.097,19.497,23.98,32.975,31.53V421.756z M275.378,321.231c0-38.821,31.583-70.404,70.404-70.404
		s70.404,31.583,70.404,70.404s-31.583,70.404-70.404,70.404S275.378,360.052,275.378,321.231z M20.398,348.582V108.421h44.319
		c5.633,0,10.199-4.566,10.199-10.199V77.01h57.203v21.211c0,5.633,4.566,10.199,10.199,10.199h349.283v240.162h-59.229
		c2.733-8.636,4.212-17.824,4.212-27.351c0-50.069-40.734-90.802-90.802-90.802s-90.803,40.734-90.803,90.802
		c0,9.528,1.479,18.717,4.212,27.351H20.398z"/>
	<path style="fill:#4D3D36;" d="M467.124,77.514h2.04c5.633,0,10.199-4.566,10.199-10.199s-4.566-10.199-10.199-10.199h-2.04
		c-5.633,0-10.199,4.566-10.199,10.199S461.49,77.514,467.124,77.514z"/>
	<path style="fill:#4D3D36;" d="M430.406,77.514h2.04c5.633,0,10.199-4.566,10.199-10.199s-4.566-10.199-10.199-10.199h-2.04
		c-5.633,0-10.199,4.566-10.199,10.199S424.773,77.514,430.406,77.514z"/>
	<path style="fill:#4D3D36;" d="M393.689,77.514h2.04c5.633,0,10.199-4.566,10.199-10.199s-4.566-10.199-10.199-10.199h-2.04
		c-5.633,0-10.199,4.566-10.199,10.199S388.056,77.514,393.689,77.514z"/>
	<path style="fill:#4D3D36;" d="M441.626,169.823h6.12c5.633,0,10.199-4.566,10.199-10.199s-4.566-10.199-10.199-10.199h-6.12
		c-5.633,0-10.199,4.566-10.199,10.199S435.992,169.823,441.626,169.823z"/>
	<path style="fill:#4D3D36;" d="M54.056,159.624c0,5.633,4.566,10.199,10.199,10.199h341.673c5.633,0,10.199-4.566,10.199-10.199
		s-4.566-10.199-10.199-10.199H64.255C58.622,149.424,54.056,153.991,54.056,159.624z"/>
	<path style="fill:#4D3D36;" d="M288.637,189.201H64.255c-5.633,0-10.199,4.566-10.199,10.199c0,5.633,4.566,10.199,10.199,10.199
		h224.382c5.633,0,10.199-4.566,10.199-10.199C298.837,193.768,294.27,189.201,288.637,189.201z"/>
</g>
<g>
</g>
<g>
</g>
<g>
</g>
<g>
</g>
<g>
</g>
<g>
</g>
<g>
</g>
<g>
</g>
<g>
</g>
<g>
</g>
<g>
</g>
<g>
</g>
<g>
</g>
<g>
</g>
<g>
</g>
</svg>
