<?xml version="1.0" encoding="iso-8859-1"?>
<!-- Generator: Adobe Illustrator 19.0.0, SVG Export Plug-In . SVG Version: 6.00 Build 0)  -->
<svg version="1.1" id="Layer_1" xmlns="http://www.w3.org/2000/svg" xmlns:xlink="http://www.w3.org/1999/xlink" x="0px" y="0px"
	 viewBox="0 0 503.438 503.438" style="enable-background:new 0 0 503.438 503.438;" xml:space="preserve">
<g transform="translate(1 3)">
	<path style="fill:#7EE1E6;" d="M3.267,479.119V257.252h51.2c9.387,0,17.067,7.68,17.067,17.067v17.067v119.467v51.2
		c0,9.387-7.68,17.067-17.067,17.067H3.267z"/>
	<path style="fill:#FFD0A1;" d="M361.667,376.719l98.133-47.787c11.947-6.827,28.16-2.56,34.987,9.387
		c6.827,11.947,2.56,28.16-9.387,34.987l-115.2,71.68c0,0-25.6,17.067-85.333,17.067c-51.2,0-128-42.667-128-42.667
		s-17.067-8.533-51.2-8.533H71.533V291.385h102.4c25.6,0,68.267,51.2,93.867,51.2H319c17.067,0,25.6,8.533,25.6,8.533
		S361.667,359.652,361.667,376.719"/>
	<g>
		<path style="fill:#FFE079;" d="M336.067,18.319c80.213,0,145.067,64.853,145.067,145.067S416.28,308.452,336.067,308.452
			S191,243.599,191,163.385S255.853,18.319,336.067,18.319"/>
		<path style="fill:#FFE079;" d="M336.067,274.319c-61.44,0-110.933-49.493-110.933-110.933S274.627,52.452,336.067,52.452
			S447,101.945,447,163.385S397.507,274.319,336.067,274.319"/>
	</g>
</g>
<path style="fill:#51565F;" d="M55.467,486.385h-51.2c-2.56,0-4.267-1.707-4.267-4.267c0-2.56,1.707-4.267,4.267-4.267h51.2
	c6.827,0,12.8-5.973,12.8-12.8V277.319c0-6.827-5.973-12.8-12.8-12.8h-51.2c-2.56,0-4.267-1.707-4.267-4.267
	s1.707-4.267,4.267-4.267h51.2c11.947,0,21.333,9.387,21.333,21.333v187.733C76.8,476.999,67.413,486.385,55.467,486.385z
	 M285.867,469.319c-52.053,0-127.147-41.813-129.707-43.52l0,0c0,0-17.067-7.68-49.493-7.68c-2.56,0-4.267-1.707-4.267-4.267
	s1.707-4.267,4.267-4.267c34.987,0,52.053,8.533,52.907,9.387c0.853,0.853,76.8,41.813,126.293,41.813
	c57.173,0,82.773-16.213,82.773-16.213l115.2-71.68c5.12-2.56,8.533-7.68,10.24-12.8c1.707-5.12,0.853-11.093-2.56-16.213
	c-3.413-5.12-7.68-8.533-12.8-10.24s-11.093-0.853-16.213,1.707l-98.133,47.787c-17.92,9.387-34.987,9.387-69.973,9.387
	c-34.133,0-83.627-8.533-86.187-8.533s-4.267-2.56-3.413-5.12c0-2.56,2.56-4.267,5.12-3.413c0.853,0,51.2,8.533,84.48,8.533
	s50.347,0,66.56-7.68l98.133-47.787c6.827-4.267,14.507-5.12,22.187-2.56c7.68,1.707,14.507,6.827,17.92,13.653
	c4.267,6.827,5.12,15.36,3.413,23.04c-1.707,7.68-6.827,14.507-13.653,17.92l-115.2,71.68
	C372.053,452.252,346.453,469.319,285.867,469.319z M25.6,443.719c-5.12,0-8.533-3.413-8.533-8.533s3.413-8.533,8.533-8.533
	s8.533,3.413,8.533,8.533S30.72,443.719,25.6,443.719z M345.6,358.385c-0.853,0-2.56,0-3.413-0.853l0,0c0,0-7.68-7.68-22.187-7.68
	h-51.2c-14.507,0-31.573-12.8-49.493-26.453c-16.213-11.947-33.28-24.747-44.373-24.747h-68.267c-2.56,0-4.267-1.707-4.267-4.267
	s1.707-4.267,4.267-4.267h68.267c14.507,0,31.573,12.8,49.493,26.453c16.213,11.947,33.28,24.747,44.373,24.747H320
	c18.773,0,28.16,9.387,29.013,9.387c1.707,1.707,1.707,4.267,0,5.973C348.16,358.385,346.453,358.385,345.6,358.385z
	 M337.067,315.719c-81.92,0-149.333-67.413-149.333-149.333S255.147,17.052,337.067,17.052S486.4,84.465,486.4,166.385
	S418.987,315.719,337.067,315.719z M337.067,25.585c-77.653,0-140.8,63.147-140.8,140.8s63.147,140.8,140.8,140.8
	s140.8-63.147,140.8-140.8S414.72,25.585,337.067,25.585z M337.067,281.585c-63.147,0-115.2-52.053-115.2-115.2
	s52.053-115.2,115.2-115.2s115.2,52.053,115.2,115.2S400.213,281.585,337.067,281.585z M230.4,166.385
	c0,58.88,47.787,106.667,106.667,106.667s106.667-47.787,106.667-106.667S395.947,59.719,337.067,59.719
	S230.4,107.506,230.4,166.385z M337.067,230.385c-2.56,0-4.267-1.707-4.267-4.267v-4.267c-14.507-1.707-25.6-14.507-25.6-29.867
	c0-2.56,1.707-4.267,4.267-4.267s4.267,1.707,4.267,4.267c0,11.947,9.387,21.333,21.333,21.333s21.333-9.387,21.333-21.333
	c0-11.947-9.387-21.333-21.333-21.333c-16.213,0-29.867-13.653-29.867-29.867c0-15.36,11.093-27.307,25.6-29.867v-4.267
	c0-2.56,1.707-4.267,4.267-4.267s4.267,1.707,4.267,4.267v4.267c14.507,1.707,25.6,14.507,25.6,29.867
	c0,2.56-1.707,4.267-4.267,4.267s-4.267-1.707-4.267-4.267c0-11.947-9.387-21.333-21.333-21.333s-21.333,9.387-21.333,21.333
	s9.387,21.333,21.333,21.333c16.213,0,29.867,13.653,29.867,29.867c0,15.36-11.093,27.307-25.6,29.867v4.267
	C341.333,228.679,339.627,230.385,337.067,230.385z"/>
<g>
</g>
<g>
</g>
<g>
</g>
<g>
</g>
<g>
</g>
<g>
</g>
<g>
</g>
<g>
</g>
<g>
</g>
<g>
</g>
<g>
</g>
<g>
</g>
<g>
</g>
<g>
</g>
<g>
</g>
</svg>
