<?xml version="1.0" encoding="iso-8859-1"?>
<!-- Generator: Adobe Illustrator 19.0.0, SVG Export Plug-In . SVG Version: 6.00 Build 0)  -->
<svg version="1.1" id="Layer_1" xmlns="http://www.w3.org/2000/svg" xmlns:xlink="http://www.w3.org/1999/xlink" x="0px" y="0px"
	 viewBox="0 0 512 512" style="enable-background:new 0 0 512 512;" xml:space="preserve">
<g>
	<polygon style="fill:#D2E7F8;" points="255.999,108.377 164.178,198.59 164.178,222.959 164.178,243.041 164.178,270.553 
		164.178,476.185 347.821,476.185 347.821,270.553 347.821,243.041 347.821,222.959 347.821,198.59 	"/>
	<polygon style="fill:#D2E7F8;" points="44.028,314.697 44.028,476.185 164.178,476.185 164.178,270.553 	"/>
	<polygon style="fill:#D2E7F8;" points="347.821,476.185 467.971,476.185 467.971,314.697 347.821,270.553 	"/>
</g>
<g>
	<rect x="223.612" y="231.774" style="fill:#ACABB1;" width="64.774" height="16.721"/>
	<rect x="375.504" y="392.907" style="fill:#ACABB1;" width="64.774" height="16.721"/>
	<rect x="71.721" y="392.907" style="fill:#ACABB1;" width="64.774" height="16.721"/>
</g>
<g>
	<polygon style="fill:#806749;" points="347.821,198.59 347.821,163.286 255.999,73.072 164.178,163.286 164.178,198.59 
		255.999,108.377 	"/>
	<polygon style="fill:#806749;" points="347.821,243.041 347.821,270.553 467.971,314.697 467.971,287.185 	"/>
	<polygon style="fill:#806749;" points="164.178,243.041 44.028,287.185 44.028,314.697 164.178,270.553 	"/>
</g>
<g>
	<polygon style="fill:#ACABB1;" points="164.178,198.59 164.178,222.959 255.999,132.746 347.821,222.959 347.821,198.59 
		255.999,108.377 	"/>
	<polygon style="fill:#ACABB1;" points="142.69,279.204 164.178,270.553 164.178,476.185 142.69,476.185 	"/>
	<polygon style="fill:#ACABB1;" points="369.309,279.204 347.821,270.553 347.821,476.185 369.309,476.185 	"/>
</g>
<rect x="23.944" y="476.186" style="fill:#1D1D1F;" width="464.114" height="28.097"/>
<g>
	<path style="fill:#57565C;" d="M255.999,329.337L255.999,329.337c-32.614,0-59.052,26.439-59.052,59.051v87.796h118.104v-87.796
		C315.051,355.776,288.613,329.337,255.999,329.337z"/>
	<path style="fill:#57565C;" d="M255.999,167.531L255.999,167.531c-13.691,0-24.79,11.098-24.79,24.79v39.448h49.579v-39.448
		C280.79,178.629,269.69,167.531,255.999,167.531z"/>
	<path style="fill:#57565C;" d="M104.103,329.337L104.103,329.337c-13.691,0-24.79,11.098-24.79,24.79v39.448h49.579v-39.448
		C128.893,340.436,117.793,329.337,104.103,329.337z"/>
	<path style="fill:#57565C;" d="M407.896,329.337L407.896,329.337c-13.691,0-24.79,11.098-24.79,24.79v39.448h49.579v-39.448
		C432.685,340.436,421.587,329.337,407.896,329.337z"/>
</g>
<path d="M288.508,192.321c0-17.925-14.583-32.508-32.509-32.508s-32.509,14.583-32.509,32.508v47.167h65.017V192.321z
	 M273.071,224.05h-34.143v-31.73c0-9.413,7.658-17.07,17.071-17.07s17.071,7.658,17.071,17.07V224.05z"/>
<path d="M104.103,321.618c-17.926,0-32.509,14.583-32.509,32.509v47.167h65.017v-47.167
	C136.611,336.202,122.028,321.618,104.103,321.618z M121.174,385.857H87.031v-31.73c0-9.413,7.658-17.072,17.071-17.072
	s17.071,7.658,17.071,17.072V385.857z"/>
<path d="M407.896,321.618c-17.926,0-32.509,14.583-32.509,32.509v47.167h65.017v-47.167
	C440.405,336.202,425.822,321.618,407.896,321.618z M424.968,385.857h-34.143v-31.73c0-9.413,7.658-17.072,17.071-17.072
	c9.414,0,17.072,7.658,17.072,17.072L424.968,385.857L424.968,385.857z"/>
<path d="M475.69,468.466V281.799l-120.15-44.145v-77.605l-91.822-90.213v-31.24h20.579V23.159h-20.579V0h-15.437v23.159h-20.579
	v15.437h20.579v31.239l-91.822,90.213v77.605l-120.15,44.146v186.667H16.225V512h479.55v-43.534H475.69z M355.54,281.612
	l104.712,38.473v148.381H355.54V281.612z M460.253,292.573v11.065L355.54,265.166V254.1L460.253,292.573z M255.999,83.894
	l84.104,82.63v13.663l-84.104-82.63l-84.104,82.63v-13.663L255.999,83.894z M171.896,201.827l84.104-82.629l84.104,82.629v30.155
	v236.484H322.77v-80.078c0-36.817-29.953-66.77-66.771-66.77s-66.771,29.953-66.771,66.77v80.078h-17.333V231.982V201.827z
	 M248.281,468.466h-43.615v-80.078c0-25.682,18.959-47.018,43.615-50.752V468.466z M263.718,337.637
	c24.656,3.735,43.615,25.07,43.615,50.752v80.078h-43.615V337.637z M156.458,254.099v11.065L51.746,303.638v-11.065L156.458,254.099
	z M51.746,320.085l104.712-38.473v186.855H51.746V320.085z M480.337,496.563H31.662v-12.66h4.648h120.15h15.437h17.333h133.542
	h17.333h15.437h120.15h4.648v12.66H480.337z"/>
<rect x="183.692" y="291.104" width="14.939" height="15.437"/>
<rect x="216.11" y="291.104" width="14.938" height="15.437"/>
<rect x="248.528" y="291.104" width="14.939" height="15.437"/>
<rect x="280.946" y="291.104" width="14.938" height="15.437"/>
<rect x="313.374" y="291.104" width="14.939" height="15.437"/>
<g>
</g>
<g>
</g>
<g>
</g>
<g>
</g>
<g>
</g>
<g>
</g>
<g>
</g>
<g>
</g>
<g>
</g>
<g>
</g>
<g>
</g>
<g>
</g>
<g>
</g>
<g>
</g>
<g>
</g>
</svg>
