<?xml version="1.0" encoding="iso-8859-1"?>
<!-- Generator: Adobe Illustrator 19.0.0, SVG Export Plug-In . SVG Version: 6.00 Build 0)  -->
<svg version="1.1" id="Layer_1" xmlns="http://www.w3.org/2000/svg" xmlns:xlink="http://www.w3.org/1999/xlink" x="0px" y="0px"
	 viewBox="0 0 512 512" style="enable-background:new 0 0 512 512;" xml:space="preserve">
<path style="fill:#F25B22;" d="M168.489,343.848c0,0,106.535,127.778,0,127.778C62.034,471.625,168.489,343.848,168.489,343.848z"/>
<path style="fill:#FFD311;" d="M167.93,263.987c0,0,199.653,239.583,0,239.583S167.93,263.987,167.93,263.987z M168.489,471.625
	c106.535,0,0-127.778,0-127.778S62.034,471.625,168.489,471.625z"/>
<path style="fill:#4B5153;" d="M471.402,40.375V503.57H167.93c113.163,0,98.069-76.986,63.649-143.67l0.239-0.08V40.375H471.402z"/>
<path style="fill:#7E8488;" d="M503.347,8.431V503.57h-31.945V40.375H231.819v319.444l-0.239,0.08
	c-9.823-19.166-21.243-37.454-31.705-52.788V8.431H503.347z"/>
<path style="fill:#393F41;" d="M231.819,40.375v319.444l-0.239,0.08c34.42,66.683,49.514,143.67-63.649,143.67h183.681V40.375
	H231.819z"/>
<g>
	<rect x="255.774" y="63.889" style="fill:#FFFFFF;" width="15.972" height="16.863"/>
	<rect x="279.73" y="63.889" style="fill:#FFFFFF;" width="15.972" height="16.863"/>
	<rect x="431.473" y="463.198" style="fill:#FFFFFF;" width="15.971" height="16.863"/>
</g>
<path d="M191.443,0v280.6c-9.787-13.271-16.618-21.509-17.031-22.006l-6.476-7.786l-6.483,7.779
	c-1.188,1.427-29.387,35.414-54.199,78.248c-34.297,59.203-44.491,104.584-30.3,134.882c4.435,9.469,11.151,17.275,20.088,23.42
	H0.222V512h511.556V0H191.443z M92.226,464.571c-11.535-24.618-1.331-65.801,29.509-119.094
	c17.131-29.604,36.394-55.416,46.193-67.978c5.815,7.46,14.957,19.581,24.983,34.364c12.206,17.894,22.694,35.349,31.177,51.905
	c16.999,32.932,33.826,77.83,17.452,104.708c-10.779,17.692-35.543,26.663-73.611,26.663
	C127.2,495.137,101.73,484.853,92.226,464.571z M255.94,477.247c16.177-26.556,10.883-66.56-15.69-118.89V48.806h222.72v446.331
	H238.79C245.932,490.232,251.663,484.27,255.94,477.247z M494.915,495.137h-15.081V31.944H223.387V328.06
	c-4.686-7.737-9.722-15.589-15.082-23.518V16.863h286.609v478.274H494.915z"/>
<path d="M174.965,338.448l-6.479-7.77l-6.476,7.773c-0.642,0.771-15.886,19.149-29.282,42.281
	c-18.972,32.758-24.459,58.187-16.311,75.579c7.38,15.758,24.9,23.746,52.07,23.746c27.195,0,44.728-7.993,52.11-23.759
	c8.145-17.397,2.65-42.825-16.333-75.578C190.86,357.593,175.607,339.218,174.965,338.448z M205.327,449.147
	c-4.364,9.321-16.758,14.047-36.838,14.047c-20.053,0-32.434-4.72-36.798-14.032c-9.486-20.235,15.455-63.856,36.804-91.79
	C189.859,385.282,214.818,428.878,205.327,449.147z"/>
<polygon points="167.929,431.249 151.958,431.249 151.958,448.111 167.929,448.111 167.929,432.139 183.902,432.139 
	183.902,415.276 167.929,415.276 "/>
<rect x="255.774" y="87.844" width="15.972" height="16.863"/>
<rect x="431.473" y="439.23" width="15.971" height="16.863"/>
<g>
	<rect x="407.517" y="463.198" style="fill:#FFFFFF;" width="15.972" height="16.863"/>
	<polygon style="fill:#FFFFFF;" points="389.517,170.177 377.592,182.101 395.144,199.653 279.735,199.653 279.735,216.516 
		395.144,216.516 377.593,234.065 389.516,245.99 427.424,208.084 	"/>
	<polygon style="fill:#FFFFFF;" points="389.517,258.024 377.592,269.948 395.144,287.499 279.735,287.499 279.735,304.362 
		395.144,304.362 377.592,321.914 389.517,333.838 427.424,295.93 	"/>
</g>
<g>
</g>
<g>
</g>
<g>
</g>
<g>
</g>
<g>
</g>
<g>
</g>
<g>
</g>
<g>
</g>
<g>
</g>
<g>
</g>
<g>
</g>
<g>
</g>
<g>
</g>
<g>
</g>
<g>
</g>
</svg>
