<svg width="28" height="28" viewBox="0 0 28 28" fill="none" xmlns="http://www.w3.org/2000/svg">
<path d="M14 0C6.26804 0 0 6.26804 0 14C0 21.732 6.26804 28 14 28C21.732 28 28 21.732 28 14C28 6.26798 21.732 0 14 0ZM16.3333 22.9697C16.3333 23.4978 15.9052 23.926 15.3771 23.926H12.7535C12.2254 23.926 11.7973 23.4978 11.7973 22.9697V12.3247C11.7973 11.7966 12.2253 11.3684 12.7535 11.3684H15.3771C15.9052 11.3684 16.3333 11.7965 16.3333 12.3247V22.9697ZM14 9.55652C12.6889 9.55652 11.6261 8.49368 11.6261 7.18261C11.6261 5.87154 12.6889 4.8087 14 4.8087C15.3111 4.8087 16.3739 5.87154 16.3739 7.18261C16.3739 8.49368 15.3111 9.55652 14 9.55652Z" fill="#007BFF"/>
</svg>
