<?xml version="1.0" encoding="iso-8859-1"?>
<!-- Generator: Adobe Illustrator 19.0.0, SVG Export Plug-In . SVG Version: 6.00 Build 0)  -->
<svg version="1.1" id="Layer_1" xmlns="http://www.w3.org/2000/svg" xmlns:xlink="http://www.w3.org/1999/xlink" x="0px" y="0px"
	 viewBox="0 0 460 460" style="enable-background:new 0 0 460 460;" xml:space="preserve">
<g id="XMLID_1484_">
	<path id="XMLID_10_" style="fill:#E6E6E7;" d="M310.199,76.338l127.102-23.832C449.097,50.295,460,59.344,460,71.345v344.332
		c0,9.223-6.569,17.139-15.634,18.838l-134.167,25.156c-2.334,0.438-4.73,0.438-7.064,0l-146.269-27.425
		c-2.334-0.438-4.73-0.438-7.064,0L22.699,456.078C10.903,458.29,0,449.241,0,437.24V92.908c0-9.223,6.569-17.139,15.634-18.838
		l134.167-25.156c2.334-0.438,4.73-0.438,7.064,0l146.269,27.425C305.469,76.776,307.864,76.776,310.199,76.338z"/>
	<path id="XMLID_1097_" style="fill:#BEBCB2;" d="M306.667,76.667V460c-1.183,0-2.365-0.109-3.532-0.328l-146.269-27.425
		c-1.167-0.219-2.35-0.328-3.532-0.328V48.585c1.182,0,2.365,0.109,3.532,0.328l146.269,27.425
		C304.302,76.557,305.484,76.667,306.667,76.667z"/>
	<path id="XMLID_1095_" style="fill:#A5AA61;" d="M317.263,114.015l104.404-19.576V399.77l-115,21.563l-142.739-26.764
		c-3.515-0.659-7.054-0.988-10.594-0.988s-7.081,0.33-10.597,0.989L38.333,414.145V108.814l115-21.563l142.737,26.764h0.002
		C303.102,115.334,310.231,115.333,317.263,114.015z"/>
	<path id="XMLID_1094_" style="fill:#8A9249;" d="M306.667,115.004v306.329l-142.739-26.764c-3.515-0.659-7.054-0.988-10.594-0.988
		l0,0V87.252l142.737,26.764h0.002C299.587,114.675,303.127,115.004,306.667,115.004z"/>
	<path id="XMLID_1093_" style="fill:#D4632E;" d="M305,230L305,230c-9.19,0-17.299-5.826-19.975-14.35L242.858,81.317
		C230.157,40.857,261.38,0,305,0l0,0c43.62,0,74.843,40.857,62.142,81.317L324.975,215.65C322.299,224.174,314.19,230,305,230z"/>
	<path id="XMLID_1092_" style="fill:#BC3C28;" d="M367.142,81.317L324.975,215.65C322.299,224.174,314.19,230,305,230l0,0V0l0,0
		C348.62,0,379.843,40.857,367.142,81.317z"/>
	<path id="XMLID_784_" style="fill:#F2F2F2;" d="M335,65c0,16.569-13.431,30-30,30s-30-13.431-30-30s13.431-30,30-30
		S335,48.431,335,65z"/>
	<path id="XMLID_532_" style="fill:#E0E0E0;" d="M305,95V35c16.569,0,30,13.431,30,30S321.569,95,305,95z"/>
</g>
<g>
</g>
<g>
</g>
<g>
</g>
<g>
</g>
<g>
</g>
<g>
</g>
<g>
</g>
<g>
</g>
<g>
</g>
<g>
</g>
<g>
</g>
<g>
</g>
<g>
</g>
<g>
</g>
<g>
</g>
</svg>
