<?xml version="1.0" encoding="iso-8859-1"?>
<!-- Generator: Adobe Illustrator 19.0.0, SVG Export Plug-In . SVG Version: 6.00 Build 0)  -->
<svg version="1.1" id="Capa_1" xmlns="http://www.w3.org/2000/svg" xmlns:xlink="http://www.w3.org/1999/xlink" x="0px" y="0px"
	 viewBox="0 0 511.07 511.07" style="enable-background:new 0 0 511.07 511.07;" xml:space="preserve">
<g>
	<g>
		<path style="fill:#FFE0B1;" d="M494.754,168.957c-5.594-4.574-12.859-6.395-19.93-4.973l-133.867,26.773
			c-3.047,0.605-6.18,0.32-9.078-0.836v0.004l-146.75-58.707c-5.781-2.305-12.055-2.879-18.156-1.664L26.824,157.582
			c-11.18,2.234-19.289,12.133-19.289,23.535v271.367c0,7.219,3.203,13.98,8.781,18.559c5.594,4.574,12.867,6.395,19.93,4.973
			l133.867-26.773c3.047-0.602,6.188-0.324,9.078,0.832l146.75,58.707c3.805,1.52,7.828,2.289,11.867,2.289
			c2.102,0,4.203-0.207,6.289-0.625l140.148-28.027c11.18-2.234,19.289-12.133,19.289-23.535V187.516
			C503.535,180.297,500.332,173.535,494.754,168.957z"/>
	</g>
	<g>
		<path style="fill:#FCC78D;" d="M335.535,190.801c-1.238-0.18-2.475-0.408-3.656-0.879v0.004l-146.75-58.707
			c-3.09-1.232-6.324-1.93-9.594-2.164v320.142c1.239,0.179,2.477,0.406,3.656,0.877l146.75,58.707
			c3.086,1.233,6.328,1.837,9.594,2.072V190.801z"/>
	</g>
	<g>
		<g>
			<path style="fill:#E7001E;" d="M231.535,360c-2.047,0-4.094-0.781-5.656-2.344c-3.125-3.125-3.125-8.188,0-11.313l48-48
				c3.125-3.125,8.188-3.125,11.313,0s3.125,8.188,0,11.313l-48,48C235.629,359.219,233.582,360,231.535,360z"/>
		</g>
	</g>
	<g>
		<g>
			<path style="fill:#E7001E;" d="M279.535,360c-2.047,0-4.094-0.781-5.656-2.344l-48-48c-3.125-3.125-3.125-8.188,0-11.313
				s8.188-3.125,11.313,0l48,48c3.125,3.125,3.125,8.188,0,11.313C283.629,359.219,281.582,360,279.535,360z"/>
		</g>
	</g>
	<g>
		<g>
			<path style="fill:#8A8895;" d="M255.535,296c-4.422,0-8-3.104-8-6.933V94.933c0-3.829,3.578-6.933,8-6.933s8,3.104,8,6.933
				v194.133C263.535,292.896,259.957,296,255.535,296z"/>
		</g>
	</g>
	<g>
		<circle style="fill:#E7001E;" cx="255.535" cy="48" r="48"/>
	</g>
	<g>
		<path style="fill:#FF4F19;" d="M255.535,0c-13.255,0-25.254,5.373-33.941,14.059l67.882,67.882
			c8.687-8.687,14.059-20.686,14.059-33.941C303.535,21.49,282.045,0,255.535,0z"/>
	</g>
</g>
<g>
</g>
<g>
</g>
<g>
</g>
<g>
</g>
<g>
</g>
<g>
</g>
<g>
</g>
<g>
</g>
<g>
</g>
<g>
</g>
<g>
</g>
<g>
</g>
<g>
</g>
<g>
</g>
<g>
</g>
</svg>
