<?xml version="1.0" encoding="iso-8859-1"?>
<!-- Generator: Adobe Illustrator 19.0.0, SVG Export Plug-In . SVG Version: 6.00 Build 0)  -->
<svg version="1.1" id="Layer_1" xmlns="http://www.w3.org/2000/svg" xmlns:xlink="http://www.w3.org/1999/xlink" x="0px" y="0px"
	 viewBox="0 0 512 512" style="enable-background:new 0 0 512 512;" xml:space="preserve">
<path style="fill:#FFE6B8;" d="M476.047,211.846H32.862c-12.516,0-22.663,10.146-22.663,22.663v204.446
	c0,12.516,10.146,22.663,22.663,22.663h443.185c12.516,0,22.663-10.146,22.663-22.663V234.51
	C498.709,221.993,488.563,211.846,476.047,211.846z"/>
<path style="fill:#D35B38;" d="M496.606,66.311l-10.75-10.75c-6.926-6.926-18.157-6.926-25.083,0l-33.325,33.325l35.833,35.833
	l33.325-33.325C503.533,84.467,503.533,73.238,496.606,66.311z"/>
<polygon style="fill:#FFAD61;" points="427.449,88.886 214.601,301.734 196.685,355.483 250.434,337.567 463.281,124.719 "/>
<g>
	<path style="fill:#4D3D36;" d="M300.264,201.647H32.862C14.742,201.647,0,216.389,0,234.51v204.446
		c0,18.121,14.742,32.863,32.862,32.863h443.185c18.12,0,32.862-14.742,32.862-32.863V234.51c0-18.121-14.742-32.863-32.862-32.863
		h-75.269l103.04-103.04C509.094,93.329,512,86.314,512,78.853c0-7.461-2.906-14.476-8.182-19.753l-10.75-10.75
		c-10.892-10.892-28.615-10.892-39.508,0L300.264,201.647z M427.448,103.309l21.409,21.409L244.924,328.652l-32.113,10.704
		l10.704-32.113L427.448,103.309z M467.984,62.774c2.938-2.937,7.721-2.939,10.659,0l10.75,10.75
		c1.424,1.424,2.208,3.316,2.208,5.329c0,2.014-0.784,3.906-2.208,5.33l-26.113,26.113L444.943,91.96l-3.072-3.072L467.984,62.774z
		 M488.51,438.956c0,6.872-5.591,12.464-12.463,12.464H32.862c-6.872,0-12.463-5.591-12.463-12.464V234.51
		c0-6.872,5.591-12.464,12.463-12.464h247.003l-72.476,72.477c-1.12,1.12-1.963,2.486-2.464,3.987l-17.916,53.749
		c-1.222,3.665-0.268,7.705,2.464,10.437c1.944,1.944,4.551,2.987,7.214,2.987c1.079,0,2.167-0.171,3.224-0.524l53.749-17.915
		c1.502-0.501,2.867-1.344,3.987-2.464l122.732-122.733h95.668c6.872,0,12.463,5.591,12.463,12.464L488.51,438.956L488.51,438.956z"
		/>
	<path style="fill:#4D3D36;" d="M451.075,408.122h-6.08c-5.633,0-10.199,4.567-10.199,10.199c0,5.632,4.566,10.199,10.199,10.199
		h6.08c5.633,0,10.199-4.567,10.199-10.199C461.274,412.689,456.708,408.122,451.075,408.122z"/>
	<path style="fill:#4D3D36;" d="M404.453,408.122H172.36c-5.633,0-10.199,4.567-10.199,10.199c0,5.632,4.566,10.199,10.199,10.199
		h232.093c5.633,0,10.199-4.567,10.199-10.199C414.653,412.689,410.087,408.122,404.453,408.122z"/>
	<path style="fill:#4D3D36;" d="M451.075,349.338H299.049c-5.633,0-10.199,4.567-10.199,10.199c0,5.632,4.566,10.199,10.199,10.199
		h152.026c5.633,0,10.199-4.567,10.199-10.199C461.274,353.905,456.708,349.338,451.075,349.338z"/>
	<path style="fill:#4D3D36;" d="M107.587,316.211v-37.817c13.04,0.932,17.883,6.894,22.354,6.894c5.588,0,8.197-7.079,8.197-10.618
		c0-9.128-17.883-13.04-30.551-13.412v-5.03c0-2.236-2.795-4.285-5.588-4.285c-3.167,0-5.403,2.049-5.403,4.285v5.403
		c-17.698,1.862-35.394,11.176-35.394,34.649c0,23.845,18.629,30.552,35.394,36.513v43.777
		c-19.001-1.49-24.031-14.531-30.178-14.531c-4.657,0-8.569,6.147-8.569,10.618c0,9.128,15.648,21.61,38.748,21.982v5.775
		c0,2.235,2.236,4.285,5.403,4.285c2.795,0,5.588-2.05,5.588-4.285v-6.334c20.119-2.795,33.904-15.462,33.904-38.376
		C141.492,330.368,123.794,322.172,107.587,316.211z M97.714,312.672c-9.873-3.725-17.883-7.637-17.883-18.256
		c0-9.687,7.452-14.343,17.883-15.648V312.672z M106.469,376.195v-39.307c9.128,3.912,16.393,9.128,16.393,20.865
		C122.863,368.371,116.529,374.333,106.469,376.195z"/>
</g>
<g>
</g>
<g>
</g>
<g>
</g>
<g>
</g>
<g>
</g>
<g>
</g>
<g>
</g>
<g>
</g>
<g>
</g>
<g>
</g>
<g>
</g>
<g>
</g>
<g>
</g>
<g>
</g>
<g>
</g>
</svg>
