<?xml version="1.0" encoding="iso-8859-1"?>
<!-- Generator: Adobe Illustrator 19.0.0, SVG Export Plug-In . SVG Version: 6.00 Build 0)  -->
<svg version="1.1" id="Layer_1" xmlns="http://www.w3.org/2000/svg" xmlns:xlink="http://www.w3.org/1999/xlink" x="0px" y="0px"
	 viewBox="0 0 512 512" style="enable-background:new 0 0 512 512;" xml:space="preserve">
<path style="fill:#AFF078;" d="M503.983,53.445H8.017C3.589,53.445,0,57.034,0,61.461v376.251c0,4.427,3.589,8.017,8.017,8.017
	h495.967c4.427,0,8.017-3.589,8.017-8.017V61.461C512,57.034,508.411,53.445,503.983,53.445z"/>
<path style="fill:#5AC779;" d="M512,61.461c0-4.427-3.589-8.017-8.017-8.017H8.017C3.589,53.445,0,57.034,0,61.461v239.076h512
	V61.461z"/>
<path style="fill:#AFF078;" d="M0,300.538v137.174c0,4.427,3.589,8.017,8.017,8.017h495.967c4.427,0,8.017-3.589,8.017-8.017
	V300.538H0z"/>
<path style="fill:#00A085;" d="M37.946,53.445H8.017C3.589,53.445,0,57.034,0,61.461v239.076h29.929V61.461
	C29.929,57.034,33.518,53.445,37.946,53.445z"/>
<path style="fill:#5AC779;" d="M29.929,437.712V300.538H0v137.174c0,4.427,3.589,8.017,8.017,8.017h29.929
	C33.518,445.729,29.929,442.139,29.929,437.712z"/>
<path style="fill:#AFF078;" d="M465.503,134.146c-21.219,0-38.48-17.262-38.48-38.48c0-2.361-1.914-4.276-4.276-4.276H89.253
	c-2.361,0-4.276,1.914-4.276,4.276c0,21.219-17.262,38.48-38.48,38.48c-2.361,0-4.276,1.914-4.276,4.276v85.511
	c0,2.361,1.914,4.276,4.276,4.276c21.219,0,38.48,17.262,38.48,38.48c0,2.361,1.914,4.276,4.276,4.276h333.495
	c2.361,0,4.276-1.914,4.276-4.276c0-21.219,17.262-38.48,38.48-38.48c2.361,0,4.276-1.914,4.276-4.276v-85.511
	C469.779,136.061,467.864,134.146,465.503,134.146z"/>
<g>
	<circle style="fill:#5AC779;" cx="367.785" cy="176.902" r="42.136"/>
	<circle style="fill:#5AC779;" cx="144.215" cy="176.902" r="42.136"/>
</g>
<g>
	<rect y="327.081" style="fill:#00A085;" width="512" height="16.033"/>
	<rect y="361.286" style="fill:#00A085;" width="512" height="16.033"/>
	<rect y="395.491" style="fill:#00A085;" width="512" height="16.033"/>
</g>
<circle style="fill:#FFD652;" cx="119.182" cy="262.413" r="89.787"/>
<path style="fill:#FB9D46;" d="M149.111,322.271c-49.588,0-89.787-40.199-89.787-89.787c0-17.124,4.798-33.125,13.116-46.742
	c-25.814,15.77-43.045,44.206-43.045,76.671c0,49.588,40.199,89.787,89.787,89.787c32.464,0,60.9-17.232,76.671-43.045
	C182.236,317.473,166.234,322.271,149.111,322.271z"/>
<circle style="fill:#FFD652;" cx="324.409" cy="416.334" r="89.787"/>
<path style="fill:#FB9D46;" d="M354.338,476.192c-49.588,0-89.787-40.199-89.787-89.787c0-17.124,4.798-33.125,13.116-46.742
	c-25.814,15.77-43.045,44.206-43.045,76.671c0,49.588,40.199,89.787,89.787,89.787c32.464,0,60.9-17.232,76.671-43.045
	C387.463,471.394,371.462,476.192,354.338,476.192z"/>
<circle style="fill:#FFD652;" cx="392.818" cy="95.666" r="89.787"/>
<path style="fill:#FB9D46;" d="M421.678,156.593c-49.588,0-89.787-40.199-89.787-89.787c0-17.402,4.965-33.636,13.534-47.393
	c-25.447,15.85-42.394,44.066-42.394,76.253c0,49.588,40.199,89.787,89.787,89.787c32.187,0,60.403-16.947,76.253-42.394
	C455.314,151.628,439.08,156.593,421.678,156.593z"/>
<path style="fill:#00A085;" d="M285.929,150.714c4.427,0,8.017-3.589,8.017-8.017c0-4.427-3.589-8.017-8.017-8.017h-21.912v-9.086
	c0-4.427-3.589-8.017-8.017-8.017c-4.427,0-8.017,3.589-8.017,8.017v9.086h-6.948c-10.314,0-18.706,8.392-18.706,18.706v17.102
	c0,10.314,8.392,18.706,18.706,18.706h6.948v22.447h-21.912c-4.427,0-8.017,3.589-8.017,8.017s3.589,8.017,8.017,8.017h21.912v9.086
	c0,4.427,3.589,8.017,8.017,8.017c4.427,0,8.017-3.589,8.017-8.017v-9.086h6.948c10.314,0,18.706-8.392,18.706-18.706v-17.102
	c0-10.314-8.392-18.706-18.706-18.706h-6.948v-22.447H285.929z M270.965,189.194c1.473,0,2.672,1.199,2.672,2.672v17.102
	c0,1.473-1.199,2.672-2.672,2.672h-6.948v-22.447H270.965z M247.983,173.161h-6.948c-1.473,0-2.672-1.199-2.672-2.672v-17.102
	c0-1.473,1.199-2.672,2.672-2.672h6.948V173.161z"/>
<g>
	<path style="fill:#FF7452;" d="M149.111,216.985h-21.912V207.9c0-4.427-3.589-8.017-8.017-8.017c-4.427,0-8.017,3.589-8.017,8.017
		v9.086h-6.948c-10.314,0-18.706,8.392-18.706,18.706v17.102c0,10.314,8.392,18.706,18.706,18.706h6.948v22.447H89.253
		c-4.427,0-8.017,3.589-8.017,8.017c0,4.427,3.589,8.017,8.017,8.017h21.912v9.086c0,4.427,3.589,8.017,8.017,8.017
		c4.427,0,8.017-3.589,8.017-8.017v-9.086h6.948c10.314,0,18.706-8.392,18.706-18.706v-17.102c0-10.314-8.392-18.706-18.706-18.706
		h-6.948v-22.447h21.912c4.427,0,8.017-3.589,8.017-8.017S153.538,216.985,149.111,216.985z M134.146,271.499
		c1.473,0,2.672,1.199,2.672,2.672v17.102c0,1.473-1.199,2.672-2.672,2.672h-6.948v-22.447H134.146z M111.165,255.466h-6.948
		c-1.473,0-2.672-1.199-2.672-2.672v-17.102c0-1.473,1.199-2.672,2.672-2.672h6.948V255.466z"/>
	<path style="fill:#FF7452;" d="M354.338,370.906h-21.912v-9.086c0-4.427-3.589-8.017-8.017-8.017c-4.427,0-8.017,3.589-8.017,8.017
		v9.086h-6.948c-10.314,0-18.706,8.392-18.706,18.706v17.102c0,10.314,8.392,18.706,18.706,18.706h6.948v22.447H294.48
		c-4.427,0-8.017,3.589-8.017,8.017c0,4.427,3.589,8.017,8.017,8.017h21.912v9.086c0,4.427,3.589,8.017,8.017,8.017
		c4.427,0,8.017-3.589,8.017-8.017V463.9h6.948c10.314,0,18.706-8.392,18.706-18.706v-17.102c0-10.314-8.392-18.706-18.706-18.706
		h-6.948v-22.447h21.912c4.427,0,8.017-3.589,8.017-8.017C362.355,374.495,358.766,370.906,354.338,370.906z M339.374,425.42
		c1.473,0,2.672,1.199,2.672,2.672v17.102c0,1.473-1.199,2.672-2.672,2.672h-6.948V425.42H339.374z M316.392,409.386h-6.948
		c-1.473,0-2.672-1.199-2.672-2.672v-17.102c0-1.473,1.199-2.672,2.672-2.672h6.948V409.386z"/>
	<path style="fill:#FF7452;" d="M422.747,66.271c4.427,0,8.017-3.589,8.017-8.017s-3.589-8.017-8.017-8.017h-21.912v-9.086
		c0-4.427-3.589-8.017-8.017-8.017c-4.427,0-8.017,3.589-8.017,8.017v9.086h-6.948c-10.314,0-18.706,8.392-18.706,18.706v17.102
		c0,10.314,8.392,18.706,18.706,18.706h6.948v22.447h-21.912c-4.427,0-8.017,3.589-8.017,8.017c0,4.427,3.589,8.017,8.017,8.017
		h21.912v9.086c0,4.427,3.589,8.017,8.017,8.017c4.427,0,8.017-3.589,8.017-8.017v-9.086h6.948c10.314,0,18.706-8.392,18.706-18.706
		v-17.102c0-10.314-8.392-18.706-18.706-18.706h-6.948V66.271H422.747z M407.783,104.752c1.473,0,2.672,1.199,2.672,2.672v17.102
		c0,1.473-1.199,2.672-2.672,2.672h-6.948v-22.447H407.783z M384.802,88.718h-6.948c-1.473,0-2.672-1.199-2.672-2.672V68.944
		c0-1.473,1.199-2.672,2.672-2.672h6.948V88.718z"/>
</g>
<g>
</g>
<g>
</g>
<g>
</g>
<g>
</g>
<g>
</g>
<g>
</g>
<g>
</g>
<g>
</g>
<g>
</g>
<g>
</g>
<g>
</g>
<g>
</g>
<g>
</g>
<g>
</g>
<g>
</g>
</svg>
