<?xml version="1.0" encoding="iso-8859-1"?>
<!-- Generator: Adobe Illustrator 19.0.0, SVG Export Plug-In . SVG Version: 6.00 Build 0)  -->
<svg version="1.1" id="Layer_1" xmlns="http://www.w3.org/2000/svg" xmlns:xlink="http://www.w3.org/1999/xlink" x="0px" y="0px"
	 viewBox="0 0 390.253 390.253" style="enable-background:new 0 0 390.253 390.253;" xml:space="preserve">
<path style="fill:#FFFFFF;" d="M86.238,39.063L39.11,86.19c-4.331,4.331-7.046,9.762-7.046,16.291l-3.232,50.941
	c-0.517,7.046,2.198,14.093,7.046,18.941l189.156,189.156c4.848,4.849,10.861,7.046,17.325,7.046s12.994-2.715,17.325-7.046
	L361.05,260.154c9.762-9.762,9.762-25.471,0-35.232L172.411,36.347c-4.848-4.848-10.861-7.046-17.325-7.046
	c-0.517,0-1.099,0-1.616,0l-50.941,3.232C96.516,32.533,90.569,35.248,86.238,39.063z"/>
<path style="fill:#FFC10D;" d="M242.876,346.844c-1.099,0-1.616-0.517-2.198-1.099L51.523,157.172
	c-0.517-0.517-1.099-1.616-1.099-2.715l3.232-50.941c0-0.517,0.517-1.616,1.099-2.198l47.127-47.127
	c0.517-0.517,1.099-1.099,2.198-1.099l50.941-3.232c1.099,0,1.616,0.517,2.198,1.099l188.574,188.574
	c1.099,1.099,1.099,3.232,0,4.331L245.009,345.81C244.492,346.327,243.393,346.844,242.876,346.844z"/>
<g>
	<path style="fill:#194F82;" d="M376.694,209.729L188.121,21.156c-9.244-9.244-22.238-14.093-35.749-13.576l-50.941,3.232
		c-11.378,0.517-22.238,5.43-30.319,13.576L55.401,40.097L18.553,3.248c-4.331-4.331-10.861-4.331-15.192,0s-4.331,10.861,0,15.192
		l36.331,36.331L23.983,70.481c-8.145,8.145-12.994,18.941-13.576,30.319l-3.232,50.941c-0.517,13.576,4.331,26.57,13.576,35.749
		l189.156,189.156c16.808,17.325,46.61,18.941,66.133,0l100.784-101.366C394.601,257.438,394.601,227.636,376.694,209.729z
		 M361.567,260.154L260.201,361.519c-8.663,8.663-24.372,10.279-35.232,0L36.395,172.364c-4.848-4.848-7.564-11.895-7.046-18.941
		l3.232-50.941c0.517-5.947,2.715-11.895,7.046-16.291l15.709-15.709L84.04,99.184c4.331,4.331,10.861,4.331,15.192,0
		c4.331-4.331,4.331-10.861,0-15.192L70.529,55.289L86.238,39.58c4.331-4.331,9.762-7.046,16.291-7.046l50.941-3.232
		c7.564-0.517,14.61,2.715,18.941,7.046l189.156,188.574C370.747,234.683,370.747,250.392,361.567,260.154z"/>
	<path style="fill:#194F82;" d="M213.591,143.079c-4.331-4.331-10.861-4.331-15.192,0l-55.273,55.273
		c-4.331,4.331-4.331,10.861,0,15.192c4.331,4.331,10.861,4.331,15.192,0l54.756-54.756
		C217.923,154.457,217.923,147.41,213.591,143.079z"/>
	<path style="fill:#194F82;" d="M259.102,188.59c-4.331-4.331-10.861-4.331-15.192,0l-55.273,54.756
		c-4.331,4.331-4.331,10.861,0,15.192c4.331,4.331,10.861,4.331,15.192,0l54.756-54.756
		C262.916,199.451,262.916,192.921,259.102,188.59z"/>
	<path style="fill:#194F82;" d="M288.904,234.166l-54.691,54.691c-4.331,4.331-4.331,10.861,0,15.192
		c4.331,4.331,10.861,4.331,15.192,0l54.756-54.756c4.331-4.331,4.331-10.861,0-15.192
		C299.83,229.77,293.236,229.834,288.904,234.166z"/>
</g>
<g>
</g>
<g>
</g>
<g>
</g>
<g>
</g>
<g>
</g>
<g>
</g>
<g>
</g>
<g>
</g>
<g>
</g>
<g>
</g>
<g>
</g>
<g>
</g>
<g>
</g>
<g>
</g>
<g>
</g>
</svg>
