<svg width="99" height="37" viewBox="0 0 99 37" fill="none" xmlns="http://www.w3.org/2000/svg">
<path d="M84.6766 28.7806C84.6766 28.5804 84.6063 28.4225 84.4657 28.3067C84.3252 28.1893 84.068 28.0785 83.6942 27.9743C83.3204 27.8684 83.0476 27.7535 82.8756 27.6295C82.6308 27.4542 82.5084 27.2243 82.5084 26.9398C82.5084 26.6636 82.6217 26.4395 82.8483 26.2675C83.0765 26.0939 83.3676 26.007 83.7215 26.007C83.9613 26.007 84.1755 26.0533 84.364 26.146C84.5542 26.2386 84.7014 26.3676 84.8056 26.533C84.9098 26.6983 84.9619 26.8828 84.9619 27.0862H84.6543C84.6543 26.8398 84.5699 26.6421 84.4012 26.4933C84.2325 26.3428 84.006 26.2675 83.7215 26.2675C83.4453 26.2675 83.2253 26.3295 83.0616 26.4536C82.8979 26.576 82.816 26.7364 82.816 26.9348C82.816 27.1184 82.8896 27.2681 83.0368 27.3839C83.184 27.4996 83.4197 27.6022 83.7438 27.6915C84.068 27.7791 84.3136 27.8709 84.4806 27.9669C84.6477 28.0611 84.7734 28.1744 84.8577 28.3067C84.9421 28.439 84.9842 28.5953 84.9842 28.7756C84.9842 29.0601 84.8701 29.2883 84.6419 29.4603C84.4153 29.6323 84.116 29.7183 83.7438 29.7183C83.4891 29.7183 83.2551 29.6728 83.0418 29.5818C82.8301 29.4909 82.6688 29.3635 82.558 29.1998C82.4489 29.0361 82.3943 28.8484 82.3943 28.6367H82.6994C82.6994 28.8914 82.7945 29.0923 82.9847 29.2395C83.1749 29.3867 83.4279 29.4603 83.7438 29.4603C84.025 29.4603 84.2507 29.3983 84.4211 29.2742C84.5914 29.1502 84.6766 28.9856 84.6766 28.7806Z" fill="#201B18"/>
<path d="M86.8799 29.6687H86.5748V26.0566H86.8799V29.6687Z" fill="#201B18"/>
<path d="M89.0982 29.6687H88.793V26.0566H89.0982V29.6687Z" fill="#201B18"/>
<path d="M93.5516 29.2395C93.4457 29.39 93.2795 29.5074 93.0529 29.5918C92.828 29.6761 92.5758 29.7183 92.2963 29.7183C92.0135 29.7183 91.7621 29.6505 91.5421 29.5149C91.3222 29.3792 91.1518 29.1874 91.0311 28.9393C90.9104 28.6912 90.8492 28.4068 90.8475 28.0859V27.6295C90.8475 27.1283 90.974 26.7331 91.2271 26.4437C91.4801 26.1526 91.82 26.007 92.2467 26.007C92.6188 26.007 92.9181 26.1021 93.1447 26.2923C93.3713 26.4809 93.5061 26.7413 93.5491 27.0738H93.2439C93.1993 26.8092 93.091 26.609 92.919 26.4734C92.7486 26.3362 92.5253 26.2675 92.2491 26.2675C91.9118 26.2675 91.6447 26.3874 91.4479 26.6272C91.251 26.867 91.1526 27.2053 91.1526 27.6419V28.0686C91.1526 28.3431 91.199 28.5862 91.2916 28.7979C91.3858 29.008 91.5198 29.1709 91.6935 29.2866C91.8688 29.4024 92.0697 29.4603 92.2963 29.4603C92.5592 29.4603 92.785 29.4189 92.9735 29.3362C93.0959 29.2817 93.1869 29.218 93.2464 29.1452V28.2125H92.2764V27.9544H93.5516V29.2395Z" fill="#201B18"/>
<path d="M97.231 28.6565H95.5912L95.219 29.6687H94.899L96.2659 26.0566H96.5562L97.9231 29.6687H97.6056L97.231 28.6565ZM95.6854 28.396H97.1342L96.4098 26.4288L95.6854 28.396Z" fill="#201B18"/>
<path d="M29.5777 16.3602C29.5777 26.9772 35.6603 32.5806 38.7017 34.0551V35.9905C33.4485 36.267 24.8775 30.4609 22.1127 23.8253C19.3479 17.1897 21.2832 2.81258 32.619 1.15369C41.6877 -0.173431 45.798 7.42063 46.7196 11.3836C41.0057 8.61873 29.5777 5.74331 29.5777 16.3602Z" fill="#C4C4C4" stroke="#6C6C6C" stroke-width="0.0210843"/>
<circle cx="38.4103" cy="14.2797" r="9.11339" fill="#B18C1A" stroke="#6C6C6C" stroke-width="0.0210843"/>
<circle cx="38.4104" cy="14.2797" r="4.41033" fill="#B6BBC5" stroke="#6C6C6C" stroke-width="0.0210843"/>
<g filter="url(#filter0_d)">
<path d="M39.2398 13.8495V6.66093H37.5809V13.8495H33.1572V14.9554H37.5809V30.4384L37.8574 30.7149H38.9633L39.2398 30.4384V14.9554H43.6635V13.8495H39.2398Z" fill="white"/>
<path d="M37.5598 6.66093V13.8284H33.1572C33.1455 13.8284 33.1361 13.8378 33.1361 13.8495V14.9554C33.1361 14.9671 33.1455 14.9765 33.1572 14.9765H37.5598V30.4384C37.5598 30.444 37.562 30.4494 37.566 30.4534L37.8425 30.7298C37.8464 30.7338 37.8518 30.736 37.8574 30.736H38.9633C38.9689 30.736 38.9743 30.7338 38.9782 30.7298L39.2547 30.4534C39.2586 30.4494 39.2609 30.444 39.2609 30.4384V14.9765H43.6635C43.6751 14.9765 43.6846 14.9671 43.6846 14.9554V13.8495C43.6846 13.8378 43.6751 13.8284 43.6635 13.8284H39.2609V6.66093C39.2609 6.64929 39.2514 6.63985 39.2398 6.63985H37.5809C37.5692 6.63985 37.5598 6.64929 37.5598 6.66093Z" stroke="#B6BABD" stroke-width="0.0421687" stroke-linejoin="round"/>
</g>
<path d="M5.17864 20.6742C5.17864 20.2773 5.03806 19.9714 4.7569 19.7564C4.47988 19.5414 3.97752 19.3243 3.24983 19.1051C2.52213 18.886 1.94328 18.6421 1.51328 18.3733C0.690485 17.8565 0.279088 17.1825 0.279088 16.3515C0.279088 15.6238 0.574715 15.0243 1.16597 14.5529C1.76136 14.0816 2.53247 13.8459 3.4793 13.8459C4.10776 13.8459 4.66801 13.9617 5.16003 14.1932C5.65205 14.4247 6.03864 14.7555 6.3198 15.1855C6.60095 15.6114 6.74153 16.0848 6.74153 16.6058H5.17864C5.17864 16.1344 5.02979 15.7664 4.73209 15.5018C4.43853 15.2331 4.0168 15.0987 3.46689 15.0987C2.9542 15.0987 2.55521 15.2082 2.26992 15.4274C1.98876 15.6465 1.84818 15.9525 1.84818 16.3453C1.84818 16.676 2.00117 16.9531 2.30713 17.1763C2.61309 17.3955 3.11752 17.6105 3.82041 17.8213C4.5233 18.0281 5.08767 18.2658 5.51354 18.5346C5.93941 18.7992 6.25157 19.1051 6.45004 19.4525C6.6485 19.7956 6.74773 20.1988 6.74773 20.6618C6.74773 21.4143 6.45831 22.0139 5.87946 22.4604C5.30474 22.9028 4.5233 23.124 3.53512 23.124C2.88184 23.124 2.28025 23.0041 1.73035 22.7643C1.18457 22.5204 0.758706 22.1855 0.452743 21.7596C0.150914 21.3337 0 20.8376 0 20.2711H1.5691C1.5691 20.7838 1.73862 21.1807 2.07766 21.4619C2.4167 21.743 2.90252 21.8836 3.53512 21.8836C4.08089 21.8836 4.49022 21.7741 4.7631 21.5549C5.04013 21.3317 5.17864 21.0381 5.17864 20.6742Z" fill="#201B18"/>
<path d="M15.2422 23H13.6793V13.9699H15.2422V23Z" fill="#201B18"/>
<path d="M27.3524 20.6742C27.3524 20.2773 27.2118 19.9714 26.9306 19.7564C26.6536 19.5414 26.1513 19.3243 25.4236 19.1051C24.6959 18.886 24.117 18.6421 23.687 18.3733C22.8642 17.8565 22.4528 17.1825 22.4528 16.3515C22.4528 15.6238 22.7485 15.0243 23.3397 14.5529C23.9351 14.0816 24.7062 13.8459 25.653 13.8459C26.2815 13.8459 26.8417 13.9617 27.3338 14.1932C27.8258 14.4247 28.2124 14.7555 28.4935 15.1855C28.7747 15.6114 28.9153 16.0848 28.9153 16.6058H27.3524C27.3524 16.1344 27.2035 15.7664 26.9058 15.5018C26.6123 15.2331 26.1905 15.0987 25.6406 15.0987C25.1279 15.0987 24.7289 15.2082 24.4437 15.4274C24.1625 15.6465 24.0219 15.9525 24.0219 16.3453C24.0219 16.676 24.1749 16.9531 24.4809 17.1763C24.7868 17.3955 25.2913 17.6105 25.9941 17.8213C26.697 18.0281 27.2614 18.2658 27.6873 18.5346C28.1131 18.7992 28.4253 19.1051 28.6238 19.4525C28.8222 19.7956 28.9215 20.1988 28.9215 20.6618C28.9215 21.4143 28.632 22.0139 28.0532 22.4604C27.4785 22.9028 26.697 23.124 25.7089 23.124C25.0556 23.124 24.454 23.0041 23.9041 22.7643C23.3583 22.5204 22.9324 22.1855 22.6265 21.7596C22.3247 21.3337 22.1737 20.8376 22.1737 20.2711H23.7428C23.7428 20.7838 23.9124 21.1807 24.2514 21.4619C24.5904 21.743 25.0763 21.8836 25.7089 21.8836C26.2546 21.8836 26.664 21.7741 26.9368 21.5549C27.2139 21.3317 27.3524 21.0381 27.3524 20.6742Z" fill="#201B18"/>
<path d="M54.2148 18.9687H50.506V21.7472H54.8412V23H48.9369V13.9699H54.7978V15.2351H50.506V17.7283H54.2148V18.9687Z" fill="#201B18"/>
<path d="M63.6147 13.9699L66.2196 20.8913L68.8182 13.9699H70.8462V23H69.2833V20.023L69.4384 16.0414L66.7715 23H65.649L62.9883 16.0476L63.1434 20.023V23H61.5805V13.9699H63.6147Z" fill="#201B18"/>
<path d="M83.3347 20.8975H79.8368L79.105 23H77.4739L80.8849 13.9699H82.2928L85.7101 23H84.0728L83.3347 20.8975ZM80.2772 19.6323H82.8944L81.5858 15.8863L80.2772 19.6323Z" fill="#201B18"/>
<path d="M96.921 20.6742C96.921 20.2773 96.7804 19.9714 96.4993 19.7564C96.2222 19.5414 95.7199 19.3243 94.9922 19.1051C94.2645 18.886 93.6856 18.6421 93.2556 18.3733C92.4328 17.8565 92.0214 17.1825 92.0214 16.3515C92.0214 15.6238 92.3171 15.0243 92.9083 14.5529C93.5037 14.0816 94.2748 13.8459 95.2216 13.8459C95.8501 13.8459 96.4104 13.9617 96.9024 14.1932C97.3944 14.4247 97.781 14.7555 98.0621 15.1855C98.3433 15.6114 98.4839 16.0848 98.4839 16.6058H96.921C96.921 16.1344 96.7721 15.7664 96.4744 15.5018C96.1809 15.2331 95.7591 15.0987 95.2092 15.0987C94.6965 15.0987 94.2976 15.2082 94.0123 15.4274C93.7311 15.6465 93.5905 15.9525 93.5905 16.3453C93.5905 16.676 93.7435 16.9531 94.0495 17.1763C94.3554 17.3955 94.8599 17.6105 95.5628 17.8213C96.2656 18.0281 96.83 18.2658 97.2559 18.5346C97.6818 18.7992 97.9939 19.1051 98.1924 19.4525C98.3908 19.7956 98.4901 20.1988 98.4901 20.6618C98.4901 21.4143 98.2007 22.0139 97.6218 22.4604C97.0471 22.9028 96.2656 23.124 95.2775 23.124C94.6242 23.124 94.0226 23.0041 93.4727 22.7643C92.9269 22.5204 92.5011 22.1855 92.1951 21.7596C91.8933 21.3337 91.7423 20.8376 91.7423 20.2711H93.3114C93.3114 20.7838 93.481 21.1807 93.82 21.4619C94.159 21.743 94.6449 21.8836 95.2775 21.8836C95.8232 21.8836 96.2326 21.7741 96.5055 21.5549C96.7825 21.3317 96.921 21.0381 96.921 20.6742Z" fill="#201B18"/>
<defs>
<filter id="filter0_d" x="32.9041" y="6.40792" width="11.0124" height="24.56" filterUnits="userSpaceOnUse" color-interpolation-filters="sRGB">
<feFlood flood-opacity="0" result="BackgroundImageFix"/>
<feColorMatrix in="SourceAlpha" type="matrix" values="0 0 0 0 0 0 0 0 0 0 0 0 0 0 0 0 0 0 127 0"/>
<feOffset/>
<feGaussianBlur stdDeviation="0.105422"/>
<feColorMatrix type="matrix" values="0 0 0 0 0 0 0 0 0 0 0 0 0 0 0 0 0 0 0.25 0"/>
<feBlend mode="normal" in2="BackgroundImageFix" result="effect1_dropShadow"/>
<feBlend mode="normal" in="SourceGraphic" in2="effect1_dropShadow" result="shape"/>
</filter>
</defs>
</svg>
