<?xml version="1.0" encoding="iso-8859-1"?>
<!-- Generator: Adobe Illustrator 19.0.0, SVG Export Plug-In . SVG Version: 6.00 Build 0)  -->
<svg version="1.1" id="Layer_1" xmlns="http://www.w3.org/2000/svg" xmlns:xlink="http://www.w3.org/1999/xlink" x="0px" y="0px"
	 viewBox="0 0 480.8 480.8" style="enable-background:new 0 0 480.8 480.8;" xml:space="preserve">
<path style="fill:#FFC600;" d="M464.8,88.4v46.4H436V88.4c0-3.2,2.4-5.6,5.6-5.6H460C461.6,82.8,464.8,85.2,464.8,88.4z"/>
<polygon style="fill:#EE5656;" points="464.8,150.8 464.8,373.2 450.4,392.4 435.2,373.2 435.2,150.8 "/>
<path style="fill:#FFF8EF;" d="M139.2,133.2h81.6c4,0,8-3.2,8-8s-4-8-8-8h-81.6c-4,0-8,3.2-8,8C131.2,129.2,134.4,133.2,139.2,133.2
	z M167.2,147.6H120c-4.8,0-8,4-8,8h-10.4v-44c0-15.2,11.2-28,24-28h192c-8.8,10.4-15.2,24-15.2,39.2v3.2h-16.8c0-4.8-4-8-8-8h-38.4
	c-4,0-8,3.2-8,8s3.2,8,8,8h38.4v14.4h-91.2c-4,0-8,4-8,8h-3.2C175.2,150.8,172,147.6,167.2,147.6z"/>
<path style="fill:#CC9966;" d="M217.6,350c0,15.2,5.6,29.6,15.2,39.2H50.4C31.2,389.2,16,371.6,16,350s15.2-39.2,34.4-39.2H144
	c4.8,0,8-4,8-8h14.4c0,4,3.2,8,8,8h8c4,0,8-4,8-8h14.4c0,4,3.2,8,8,8h20C223.2,321.2,217.6,334.8,217.6,350z"/>
<path style="fill:#E4C6A1;" d="M204.8,302.8h-14.4c0,4.8-4,8-8,8h-8c-4.8,0-8-3.2-8-8H152c0,4.8-3.2,8-8,8H50.4
	C32.8,310.8,17.6,326,16,346c1.6,20,16,35.2,34.4,35.2h176c-5.6-8.8-8.8-20-8.8-31.2c0-1.6,0-2.4,0-4s0-2.4,0-4
	c0-12,3.2-22.4,8.8-31.2h-13.6C208,310.8,204.8,307.6,204.8,302.8z"/>
<path style="fill:#CC9966;" d="M387.2,122v58.4h-68.8V122c0-21.6,15.2-39.2,34.4-39.2l0,0C372,82.8,387.2,100.4,387.2,122z"/>
<path style="fill:#E4C6A1;" d="M360.8,90.8L360.8,90.8c-19.2,0-35.2,17.6-35.2,39.2v50.4h60.8V122c0-9.6-3.2-18.4-8-24.8
	C373.6,93.2,367.2,90.8,360.8,90.8z"/>
<g>
	<path style="fill:#42210B;" d="M450.4,392.4l14.4-19.2V150.8H436v221.6L450.4,392.4z M464.8,88.4c0-3.2-2.4-5.6-5.6-5.6h-18.4
		c-3.2,0-5.6,2.4-5.6,5.6v46.4H464V88.4H464.8z M459.2,66.8c12,0,21.6,9.6,21.6,21.6v287.2c0,1.6-0.8,3.2-1.6,4.8l-21.6,30.4
		c-1.6,2.4-4,3.2-6.4,3.2l0,0c-2.4,0-4.8-0.8-6.4-3.2l-23.2-30.4c-0.8-1.6-1.6-3.2-1.6-4.8V88.4c0-12,9.6-21.6,21.6-21.6H459.2z"/>
	<path style="fill:#42210B;" d="M276.8,117.2c4,0,8,3.2,8,8s-4,8-8,8h-38.4c-4,0-8-3.2-8-8s3.2-8,8-8H276.8z"/>
	<path style="fill:#42210B;" d="M276.8,147.6c4,0,8,4,8,8c0,4.8-4,8-8,8h-90.4c-4,0-8-3.2-8-8c0-4,4-8,8-8H276.8z"/>
	<path style="fill:#42210B;" d="M276.8,180.4c4,0,8,4,8,8c0,4.8-4,8-8,8h-28c-4,0-8-3.2-8-8c0-4,4-8,8-8H276.8z"/>
	<path style="fill:#42210B;" d="M276.8,213.2c4,0,8,4,8,8s-4,8-8,8H150.4c-4,0-8-4-8-8s4-8,8-8H276.8z"/>
	<path style="fill:#42210B;" d="M248.8,247.6c4,0,8,3.2,8,8c0,4-4,8-8,8h-72c-4.8,0-8-4-8-8c0-4.8,3.2-8,8-8H248.8z"/>
	<path style="fill:#42210B;" d="M232,180.4c4,0,8,4,8,8c0,4.8-3.2,8-8,8h-44c-4.8,0-8-3.2-8-8c0-4,3.2-8,8-8H232z"/>
	<path style="fill:#42210B;" d="M220,117.2c4,0,8,3.2,8,8s-4,8-8,8h-80.8c-4,0-8-3.2-8-8s4-8,8-8H220z"/>
	<path style="fill:#42210B;" d="M182.4,294.8c4,0,8,4,8,8s-4,8-8,8h-8c-4.8,0-8-4-8-8s3.2-8,8-8H182.4z"/>
	<path style="fill:#42210B;" d="M168.8,180.4c4,0,8,4,8,8c0,4.8-4,8-8,8H120c-4.8,0-8-3.2-8-8c0-4,3.2-8,8-8H168.8z"/>
	<path style="fill:#42210B;" d="M167.2,147.6c4,0,8,4,8,8c0,4.8-4,8-8,8H120c-4.8,0-8-3.2-8-8c0-4,3.2-8,8-8H167.2z"/>
	<path style="fill:#42210B;" d="M157.6,247.6c4.8,0,8,3.2,8,8c0,4-3.2,8-8,8h-38.4c-4.8,0-8-4-8-8c0-4.8,3.2-8,8-8H157.6z"/>
	<path style="fill:#42210B;" d="M387.2,180.4V122c0-21.6-15.2-39.2-34.4-39.2l0,0c-19.2,0-35.2,17.6-35.2,39.2v58.4H387.2z
		 M318.4,351.6c-0.8,29.6-23.2,53.6-50.4,53.6H50.4C22.4,405.2,0,380.4,0,350s22.4-55.2,50.4-55.2h34.4v-184c0-24,18.4-44,40-44H352
		l0,0c28,0,50.4,24.8,50.4,55.2v66.4c0,4-4,8-8,8h-76.8V350l0,0c0,0,0,0,0,0.8v0.8C318.4,351.6,318.4,351.6,318.4,351.6z
		 M125.6,82.8c-13.6,0-24,12.8-24,28v44V294h43.2c4.8,0,8,4,8,8s-3.2,8-8,8H50.4C31.2,310,16,327.6,16,349.2s15.2,39.2,34.4,39.2
		H232c-9.6-10.4-15.2-24-15.2-39.2s5.6-29.6,15.2-39.2h-20c-4.8,0-8-4-8-8s3.2-8,8-8h55.2c4,0,8,4,8,8s-4,8-8,8
		c-19.2,0-34.4,17.6-34.4,39.2s15.2,39.2,34.4,39.2s34.4-17.6,34.4-39.2V123.6v-3.2c0-15.2,5.6-28.8,15.2-39.2L125.6,82.8z"/>
</g>
<path style="fill:#D9CDC1;" d="M268,389.2c19.2,0,34.4-17.6,34.4-39.2V153.2l-8.8,185.6c0,40-32,32-32,32c-32-8-8-56-8-56l0,0
	c-12,6.4-20,20-20,35.2C233.6,371.6,248.8,389.2,268,389.2z"/>
<g>
</g>
<g>
</g>
<g>
</g>
<g>
</g>
<g>
</g>
<g>
</g>
<g>
</g>
<g>
</g>
<g>
</g>
<g>
</g>
<g>
</g>
<g>
</g>
<g>
</g>
<g>
</g>
<g>
</g>
</svg>
