<?xml version="1.0" encoding="iso-8859-1"?>
<!-- Generator: Adobe Illustrator 19.0.0, SVG Export Plug-In . SVG Version: 6.00 Build 0)  -->
<svg version="1.1" id="Layer_1" xmlns="http://www.w3.org/2000/svg" xmlns:xlink="http://www.w3.org/1999/xlink" x="0px" y="0px"
	 viewBox="0 0 512 512" style="enable-background:new 0 0 512 512;" xml:space="preserve">
<path style="fill:#0071CE;" d="M472.636,147.628L341.18,16.174c-10.905-10.906-28.754-10.906-39.66,0L47.797,269.896
	c-10.905,10.907-18.241,32.351-16.3,47.653l12.209,96.208c1.94,15.303,16.05,29.409,31.35,31.351l96.204,12.204
	c15.301,1.941,36.745-5.395,47.651-16.301l253.723-253.72C483.542,176.382,483.542,158.534,472.636,147.628z M158.91,366.82
	c-10.194,10.194-26.721,10.194-36.918,0c-10.194-10.195-10.194-26.724,0-36.917c10.196-10.197,26.725-10.197,36.919-0.001
	C169.108,340.098,169.108,356.625,158.91,366.82z"/>
<path style="fill:#FFFFFF;" d="M437.159,154.259L280.665,310.754c-8.291,8.291-21.858,8.291-30.149,0l-72.456-72.455
	c-8.29-8.291-8.291-21.858,0-30.15L334.554,51.653L437.159,154.259z"/>
<g>
	<path style="fill:#333E48;" d="M171.771,317.044c-17.296-17.297-45.338-17.297-62.636,0c-17.294,17.295-17.296,45.338,0.001,62.634
		c17.297,17.296,45.338,17.296,62.635-0.001C189.065,362.381,189.067,334.339,171.771,317.044z M155.142,363.051
		c-8.112,8.113-21.266,8.113-29.381,0c-8.113-8.113-8.113-21.268,0-29.38c8.114-8.115,21.269-8.114,29.382-0.001
		C163.257,341.784,163.257,354.938,155.142,363.051z"/>
	<path style="fill:#333E48;" d="M232.809,232.799c-4.093,0-8.184-1.561-11.306-4.684c-6.243-6.244-6.243-16.368,0.001-22.612
		l92.922-92.92c6.243-6.243,16.366-6.243,22.612,0.001c6.243,6.244,6.243,16.368,0,22.612l-92.922,92.92
		C240.993,231.238,236.9,232.799,232.809,232.799z"/>
	<path style="fill:#333E48;" d="M286.175,257.823c-4.092,0-8.184-1.561-11.306-4.684c-6.244-6.244-6.244-16.368,0-22.612
		l64.579-64.579c6.243-6.244,16.368-6.244,22.612,0c6.243,6.244,6.243,16.368,0,22.612l-64.579,64.579
		C294.358,256.262,290.267,257.823,286.175,257.823z"/>
</g>
<rect x="381.493" y="19.878" transform="matrix(0.7071 -0.7071 0.7071 0.7071 50.739 307.3553)" style="fill:#FF9E16;" width="29.774" height="145.105"/>
<path style="fill:#1E252B;" d="M176.423,465.618C176.424,465.618,176.423,465.618,176.423,465.618
	c16.912,0,37.159-7.972,48.141-18.955l253.724-253.722c6.785-6.785,10.522-15.835,10.522-25.483
	c0.001-9.648-3.736-18.699-10.521-25.483L346.834,10.521C340.049,3.736,331,0,321.351,0s-18.699,3.736-25.484,10.522L42.143,264.243
	c-12.673,12.676-20.834,36.532-18.578,54.312l12.209,96.206c2.415,19.047,19.227,35.859,38.276,38.277l61.777,7.837
	c9.35,29.602,37.066,51.125,69.718,51.125c19.525,0,37.882-7.603,51.689-21.409l215.868-215.868c3.122-3.122,3.122-8.184,0-11.306
	s-8.184-3.122-11.306,0L245.927,479.284c-10.786,10.786-25.127,16.727-40.382,16.727c-22.819,0-42.546-13.457-51.684-32.848
	l16.393,2.08C172.215,465.491,174.291,465.618,176.423,465.618z M140.442,360.433c-0.91,0-1.78,0.159-2.596,0.439
	c-2.42-0.499-4.644-1.687-6.432-3.474c-2.414-2.414-3.744-5.624-3.744-9.037c0-3.414,1.329-6.623,3.744-9.037
	c2.414-2.414,5.624-3.745,9.038-3.745s6.623,1.329,9.037,3.744c2.414,2.414,3.744,5.624,3.744,9.037c0,3.413-1.33,6.623-3.746,9.037
	c-1.79,1.79-4.019,2.98-6.443,3.477C142.228,360.594,141.354,360.433,140.442,360.433z M160.797,328.018
	c-5.433-5.435-12.658-8.427-20.343-8.427s-14.909,2.993-20.345,8.427c-5.434,5.433-8.426,12.658-8.426,20.343
	s2.993,14.909,8.427,20.343c3.49,3.49,7.723,5.966,12.337,7.295v7.762c-6.637-1.488-12.733-4.813-17.658-9.737
	c-14.15-14.15-14.151-37.176-0.001-51.327c6.856-6.856,15.971-10.632,25.666-10.632c9.695,0,18.809,3.776,25.665,10.632
	c14.15,14.149,14.15,37.175,0,51.327c-4.932,4.932-11.037,8.26-17.681,9.745v-7.762c4.624-1.328,8.862-3.805,12.357-7.302
	c5.435-5.434,8.429-12.659,8.429-20.343C169.223,340.677,166.231,333.452,160.797,328.018z M148.947,446.422
	c-0.325-2.463-0.511-4.969-0.511-7.52v-38.865c10.932-1.665,21.019-6.739,28.987-14.707c20.385-20.386,20.385-53.555,0-73.939
	c-9.875-9.876-23.005-15.314-36.97-15.314c-13.966,0-27.095,5.438-36.972,15.314c-20.384,20.386-20.384,53.555,0.001,73.94
	c7.96,7.96,18.039,13.032,28.964,14.701v38.871c0,1.837,0.092,3.652,0.225,5.456l-56.61-7.181
	c-11.75-1.49-22.936-12.676-24.426-24.426l-12.209-96.208c-1.618-12.749,4.935-31.905,14.022-40.994L307.172,21.828
	c3.765-3.765,8.8-5.839,14.178-5.839c5.378,0,10.412,2.073,14.176,5.838l131.455,131.454c3.765,3.765,5.838,8.799,5.838,14.177
	c0,5.378-2.073,10.413-5.839,14.178l-253.722,253.72c-8.136,8.136-23.972,14.272-36.836,14.272c-1.461,0-2.86-0.084-4.156-0.248
	L148.947,446.422z"/>
<g>
</g>
<g>
</g>
<g>
</g>
<g>
</g>
<g>
</g>
<g>
</g>
<g>
</g>
<g>
</g>
<g>
</g>
<g>
</g>
<g>
</g>
<g>
</g>
<g>
</g>
<g>
</g>
<g>
</g>
</svg>
