<?xml version="1.0" encoding="iso-8859-1"?>
<!-- Generator: Adobe Illustrator 19.0.0, SVG Export Plug-In . SVG Version: 6.00 Build 0)  -->
<svg version="1.1" id="Layer_1" xmlns="http://www.w3.org/2000/svg" xmlns:xlink="http://www.w3.org/1999/xlink" x="0px" y="0px"
	 viewBox="0 0 432 432" style="enable-background:new 0 0 432 432;" xml:space="preserve">
<g transform="translate(0 -1020.36)" shape-rendering="auto" image-rendering="auto" color-rendering="auto" color-interpolation="sRGB">
	<path style="fill:#464C63;" d="M120,1020.36c-30.832,0-56,25.168-56,56v264H48c-4.418,0-8,3.582-8,8v40H16c-4.418,0-8,3.582-8,8v48
		c0,4.418,3.582,8,8,8h400c4.418,0,8-3.582,8-8v-48c0-4.418-3.582-8-8-8h-24v-40c0-4.418-3.582-8-8-8h-16v-264
		c0-30.832-25.166-56-56-56H120z M120,1036.36h192c22.187,0,40,17.814,40,40v264H80v-264C80,1054.174,97.814,1036.36,120,1036.36z"
		/>
	<g>
		<path style="fill:#FFB900;" d="M56.013,1356.356h320v32h-320L56.013,1356.356z"/>
		<path style="fill:#FFB900;" d="M24.013,1404.356h384v32h-384L24.013,1404.356z"/>
	</g>
	<g>
		<path style="fill:#464C63;" d="M152.139,1076.387c-4.419,0-8,3.582-8,8c-0.16,18.793,0,37.188,0,55.875
			c-0.16,10.818,16.152,10.818,16,0v-12.406l18.125,18.094c7.539,7.871,19.182-3.773,11.312-11.313l-10.312-10.313h4.749
			c4.419,0,8-3.582,8-8v-31.938c0-4.418-3.581-8-8-8H152.139z M160.139,1092.387h15.874v15.938h-15.874V1092.387z"/>
		<path style="fill:#464C63;" d="M215.893,1076.374c-4.406,0.068-7.927,3.688-7.875,8.094v55.781
			c-0.062,4.418,3.469,8.051,7.887,8.113c4.418,0.063,8.051-3.469,8.113-7.887c0.001-0.076,0.001-0.15,0-0.227v-55.781
			c0.052-4.418-3.488-8.043-7.906-8.094C216.038,1076.372,215.966,1076.372,215.893,1076.374z"/>
		<path style="fill:#464C63;" d="M248.142,1076.374c-4.418,0-8,3.582-8,8c-0.096,18.793,0,37.189,0,55.875
			c-0.154,10.818,16.153,10.818,16,0v-15.875h23.875c4.418,0,8-3.582,8-8v-32c0-4.418-3.582-8-8-8H248.142z M256.142,1092.374
			h15.875v16h-15.875V1092.374z"/>
		<path style="fill:#464C63;" d="M215.893,1188.374c-4.406,0.068-7.927,3.688-7.875,8.094v79.781
			c-0.062,4.418,3.469,8.051,7.887,8.113c4.418,0.063,8.051-3.469,8.113-7.887c0.001-0.076,0.001-0.15,0-0.227v-79.781
			c0.052-4.418-3.488-8.043-7.906-8.094C216.038,1188.372,215.966,1188.372,215.893,1188.374z"/>
		<path style="fill:#464C63;" d="M188.112,1212.374c-4.418-0.063-8.051,3.469-8.113,7.887s3.469,8.051,7.887,8.113
			c0.075,0.002,0.151,0.002,0.226,0h55.781c4.418,0.063,8.051-3.469,8.113-7.887c0.062-4.418-3.469-8.051-7.887-8.113
			c-0.075-0.002-0.151-0.002-0.226,0H188.112z"/>
	</g>
</g>
<g>
</g>
<g>
</g>
<g>
</g>
<g>
</g>
<g>
</g>
<g>
</g>
<g>
</g>
<g>
</g>
<g>
</g>
<g>
</g>
<g>
</g>
<g>
</g>
<g>
</g>
<g>
</g>
<g>
</g>
</svg>
