<svg width="29" height="28" viewBox="0 0 29 28" fill="none" xmlns="http://www.w3.org/2000/svg">
<path d="M14.5 0C6.78062 0 0.5 6.28008 0.5 14C0.5 21.7199 6.78062 28 14.5 28C22.2194 28 28.5 21.7199 28.5 14C28.5 6.28008 22.2194 0 14.5 0ZM15.5769 22.0769C15.5769 22.6714 15.0945 23.1538 14.5 23.1538C13.9055 23.1538 13.4231 22.6714 13.4231 22.0769V21C13.4231 20.4055 13.9055 19.9231 14.5 19.9231C15.0945 19.9231 15.5769 20.4055 15.5769 21V22.0769ZM15.5769 17.7692C15.5769 18.3637 15.0945 18.8462 14.5 18.8462C13.9055 18.8462 13.4231 18.3637 13.4231 17.7692V5.92308C13.4231 5.32862 13.9055 4.84615 14.5 4.84615C15.0945 4.84615 15.5769 5.32862 15.5769 5.92308V17.7692Z" fill="#FF9F43"/>
</svg>
