<?xml version="1.0" encoding="iso-8859-1"?>
<!-- Generator: Adobe Illustrator 19.0.0, SVG Export Plug-In . SVG Version: 6.00 Build 0)  -->
<svg version="1.1" id="Layer_1" xmlns="http://www.w3.org/2000/svg" xmlns:xlink="http://www.w3.org/1999/xlink" x="0px" y="0px"
	 viewBox="0 0 512.002 512.002" style="enable-background:new 0 0 512.002 512.002;" xml:space="preserve">
<polygon style="fill:#4A9FD8;" points="472.918,419.384 447.833,502.356 166.128,502.356 141.043,419.384 249.1,419.384 
	283.819,419.384 330.129,419.384 361.002,419.384 "/>
<polygon style="fill:#2A96D4;" points="141.043,419.384 166.128,502.356 206.279,502.356 194.214,419.384 "/>
<path style="fill:#F8B339;" d="M349.425,156.974c12.259,0,22.19,9.931,22.19,22.19c0,6.124-2.482,11.68-6.496,15.693
	c-1.235,1.235-2.625,2.329-4.116,3.242c-3.37,2.072-7.333,3.255-11.577,3.255h-88.748c-4.233,0-8.207-1.183-11.577-3.255
	c-6.368-3.898-10.612-10.922-10.612-18.935c0-6.124,2.482-11.68,6.497-15.693c4.013-4.013,9.571-6.497,15.693-6.497h44.368H349.425z
	"/>
<path style="fill:#E09B2E;" d="M283.939,179.165c0-6.124,2.482-11.68,6.497-15.693c4.013-4.013,9.571-6.497,15.693-6.497h-1.085
	h-44.368c-6.124,0-11.68,2.482-15.693,6.497c-4.013,4.013-6.497,9.571-6.497,15.693c0,8.014,4.246,15.037,10.612,18.935
	c3.37,2.072,7.345,3.255,11.577,3.255h45.452c-4.233,0-8.207-1.183-11.577-3.255C288.184,194.202,283.939,187.178,283.939,179.165z"
	/>
<path style="fill:#F8B339;stroke:#F8B339;stroke-miterlimit:10;" d="M361.002,198.1v221.285H249.1V198.1
	c3.37,2.072,7.345,3.255,11.577,3.255h88.748C353.671,201.355,357.632,200.171,361.002,198.1z"/>
<path style="fill:#F4DE3D;" d="M330.322,58.578c2.135,4.129,3.164,8.606,3.164,13.044c0,7.371-2.856,14.639-8.323,20.107
	c-5.557,5.557-12.839,8.336-20.107,8.336c-7.281,0-14.562-2.778-20.12-8.336c-8.747-8.747-10.831-22.152-5.159-33.15l25.266-48.935
	L330.322,58.578z"/>
<path style="fill:#EA5630;" d="M308.951,91.729c-8.747-8.747-10.831-22.152-5.159-33.15l13.262-25.685L305.045,9.644l-25.264,48.935
	c-5.673,10.998-3.589,24.403,5.159,33.15c5.557,5.557,12.839,8.336,20.12,8.336c4.103,0,8.201-0.919,12.001-2.69
	C314.127,96.009,311.369,94.148,308.951,91.729z"/>
<path style="fill:#E09B2E;" d="M361.002,198.1c-3.37,2.072-7.333,3.255-11.577,3.255H273.97h-13.293
	c-4.233,0-8.207-1.183-11.577-3.255l0,0l0,0v221.285h24.87V222.8h87.034v-24.7H361.002z"/>
<g>
	
		<line style="fill:none;stroke:#B27216;stroke-width:15;stroke-linecap:round;stroke-linejoin:round;stroke-miterlimit:10;" x1="330.125" y1="419.378" x2="330.125" y2="373.076"/>
	
		<line style="fill:none;stroke:#B27216;stroke-width:15;stroke-linecap:round;stroke-linejoin:round;stroke-miterlimit:10;" x1="283.823" y1="419.378" x2="283.823" y2="351.853"/>
</g>
<g>
	<path style="fill:#343434;" d="M480.662,413.635c-1.82-2.451-4.693-3.897-7.747-3.897H370.647V202.875
		c6.512-5.834,10.617-14.299,10.617-23.709c0-17.554-14.282-31.837-31.837-31.837h-34.73v-19.295c0-5.329-4.319-9.647-9.647-9.647
		c-5.33,0-9.647,4.32-9.647,9.647v19.295h-34.73c-17.554,0-31.837,14.282-31.837,31.837c0,9.407,4.105,17.872,10.612,23.705v206.867
		h-92.841l-29.587-51.105c-8.357-14.436-23.302-23.182-39.982-23.398c-16.648-0.175-31.846,8.142-40.575,22.356
		c-9.01,14.675-9.371,32.411-0.964,47.44c8.408,15.029,23.71,24.003,40.932,24.003h57.453l23.011,76.112
		c1.23,4.071,4.981,6.856,9.235,6.856h281.703c4.254,0,8.005-2.785,9.235-6.856l25.084-82.968
		C483.034,419.255,482.482,416.087,480.662,413.635z M260.672,166.625h88.756c6.915,0,12.541,5.627,12.541,12.541
		c0,6.914-5.626,12.541-12.541,12.541h-88.756c-6.915,0-12.541-5.627-12.541-12.541
		C248.131,172.252,253.756,166.625,260.672,166.625z M258.744,210.938c0.638,0.039,1.28,0.065,1.929,0.065h88.756
		c0.645,0,1.286-0.026,1.923-0.064v198.799h-11.569v-36.66c0-5.329-4.319-9.647-9.647-9.647c-5.33,0-9.647,4.32-9.647,9.647v36.66
		h-27.014v-57.885c0-5.329-4.319-9.647-9.647-9.647c-5.33,0-9.647,4.32-9.647,9.647v57.885h-15.431L258.744,210.938L258.744,210.938
		z M76.43,409.739c-10.137,0-19.144-5.28-24.093-14.127c-4.95-8.846-4.738-19.284,0.567-27.923
		c5.073-8.261,13.84-13.159,23.51-13.159c0.124,0,0.247,0,0.37,0.001c9.817,0.127,18.615,5.276,23.535,13.772l23.989,41.436H76.43z
		 M440.67,492.707H173.29l-19.25-63.672h305.878L440.67,492.707z"/>
	<path style="fill:#343434;" d="M305.05,109.712c10.174,0,19.738-3.963,26.932-11.156c11.773-11.772,14.55-29.618,6.911-44.412
		L313.623,5.22C311.965,2.015,308.66,0,305.05,0s-6.915,2.015-8.573,5.22l-25.27,48.925c-7.638,14.792-4.863,32.64,6.909,44.41
		C285.312,105.751,294.875,109.712,305.05,109.712z M288.354,63.001l16.696-32.328l16.696,32.328
		c3.77,7.298,2.399,16.103-3.409,21.911c-3.55,3.55-8.267,5.504-13.287,5.504c-5.02,0-9.738-1.956-13.288-5.504
		C285.954,79.105,284.583,70.299,288.354,63.001z"/>
</g>
<g>
</g>
<g>
</g>
<g>
</g>
<g>
</g>
<g>
</g>
<g>
</g>
<g>
</g>
<g>
</g>
<g>
</g>
<g>
</g>
<g>
</g>
<g>
</g>
<g>
</g>
<g>
</g>
<g>
</g>
</svg>
