<svg width="16" height="16" viewBox="0 0 16 16" fill="none" xmlns="http://www.w3.org/2000/svg">
<path d="M9.87818 7.99886L15.606 2.28438C15.8568 2.03355 15.9977 1.69335 15.9977 1.33863C15.9977 0.983899 15.8568 0.643702 15.606 0.392873C15.3552 0.142044 15.015 0.00112915 14.6602 0.00112915C14.3055 0.00112915 13.9653 0.142044 13.7145 0.392873L8 6.12067L2.28552 0.392873C2.03469 0.142044 1.6945 0.00112915 1.33977 0.00112915C0.985044 0.00112915 0.644846 0.142044 0.394017 0.392873C0.143188 0.643702 0.00227327 0.983899 0.00227327 1.33863C0.00227327 1.69335 0.143188 2.03355 0.394017 2.28438L6.12182 7.99886L0.394017 13.7133C0.269166 13.8372 0.17007 13.9845 0.102444 14.1468C0.0348177 14.3091 0 14.4832 0 14.6591C0 14.8349 0.0348177 15.009 0.102444 15.1714C0.17007 15.3337 0.269166 15.481 0.394017 15.6048C0.517848 15.7297 0.665174 15.8288 0.827496 15.8964C0.989818 15.964 1.16392 15.9989 1.33977 15.9989C1.51562 15.9989 1.68972 15.964 1.85204 15.8964C2.01437 15.8288 2.16169 15.7297 2.28552 15.6048L8 9.87704L13.7145 15.6048C13.8383 15.7297 13.9856 15.8288 14.148 15.8964C14.3103 15.964 14.4844 15.9989 14.6602 15.9989C14.8361 15.9989 15.0102 15.964 15.1725 15.8964C15.3348 15.8288 15.4822 15.7297 15.606 15.6048C15.7308 15.481 15.8299 15.3337 15.8976 15.1714C15.9652 15.009 16 14.8349 16 14.6591C16 14.4832 15.9652 14.3091 15.8976 14.1468C15.8299 13.9845 15.7308 13.8372 15.606 13.7133L9.87818 7.99886Z" fill="#BCBCBC"/>
</svg>
