<?xml version="1.0" encoding="iso-8859-1"?>
<!-- Generator: Adobe Illustrator 19.0.0, SVG Export Plug-In . SVG Version: 6.00 Build 0)  -->
<svg version="1.1" id="Layer_1" xmlns="http://www.w3.org/2000/svg" xmlns:xlink="http://www.w3.org/1999/xlink" x="0px" y="0px"
	 viewBox="0 0 504 504" style="enable-background:new 0 0 504 504;" xml:space="preserve">
<g>
	<polygon style="fill:#FF9900;" points="299.7,384 299.7,400 343.7,400 332.5,488 170.9,488 159.7,400 283.7,400 283.7,384 
		158.1,384 156.5,376 346.9,376 345.3,384 	"/>
	<polygon style="fill:#FF9900;" points="299.7,384 299.7,400 343.7,400 332.5,488 170.9,488 159.7,400 283.7,400 283.7,384 
		158.1,384 156.5,376 346.9,376 345.3,384 	"/>
</g>
<g>
	<path style="fill:#67BC34;" d="M205.3,259.2c11.2,6.4,15.2,21.6,8.8,32.8c-6.4,11.2-21.6,15.2-32.8,8.8c-7.2-4-20.8-26.4-31.2-45.6
		C171.7,254.4,198.1,254.4,205.3,259.2z"/>
	<path style="fill:#67BC34;" d="M334.9,254.4c6.4,0,12,0,17.6,0.8c-9.6,19.2-23.2,40.8-31.2,45.6c-11.2,6.4-26.4,2.4-32.8-8.8
		c-6.4-11.2-2.4-26.4,8.8-32.8C303.7,256,318.9,254.4,334.9,254.4z"/>
</g>
<g>
	<path style="fill:#7AC943;" d="M205.3,267.2c-7.2-4-30.4-4.8-50.4-4c9.6,16.8,20,33.6,26.4,37.6c11.2,6.4,26.4,2.4,32.8-8.8
		c1.6-2.4,2.4-5.6,2.4-8C215.7,277.6,211.7,271.2,205.3,267.2z"/>
	<path style="fill:#7AC943;" d="M298.1,267.2c-6.4,4-10.4,10.4-11.2,16.8c0.8,2.4,1.6,5.6,2.4,8c6.4,11.2,21.6,15.2,32.8,8.8
		c6.4-4,17.6-20.8,26.4-37.6c-4.8,0-8.8,0-13.6,0C318.9,262.4,303.7,264,298.1,267.2z"/>
</g>
<path style="fill:#FF9900;" d="M256.5,16c-1.6,0-3.2,0-4.8,0c-48.8,0-88,39.2-88,88s39.2,88,88,88c4.8,0,8.8,0,13.6-0.8
	c42.4-6.4,74.4-43.2,74.4-87.2C339.7,56.8,302.9,18.4,256.5,16z M283.7,72h-48v24h40c4,0,8,4,8,8v40c0,4-4,8-8,8h-16v24h-16v-24h-24
	v-16h48v-24h-40c-4,0-8-4-8-8V64c0-4,4-8,8-8h16V32h12.8h3.2v24h24V72z"/>
<path style="fill:#FFC600;" d="M254.9,16c-0.8,0-2.4,0-3.2,0c-35.2,0-64,39.2-64,88s28.8,88,64,88c3.2,0,6.4,0,9.6-0.8
	c31.2-6.4,54.4-43.2,54.4-87.2C315.7,56.8,288.5,18.4,254.9,16z"/>
<g>
	<path style="fill:#42210B;" d="M352.5,255.2c-5.6,0-12-0.8-17.6-0.8c-16,0-32,1.6-36.8,4.8c-11.2,6.4-15.2,21.6-8.8,32.8
		c6.4,11.2,21.6,15.2,32.8,8.8C329.3,296,342.9,274.4,352.5,255.2z M310.1,320c-13.6,0-27.2-7.2-34.4-20c-11.2-19.2-4-44,14.4-54.4
		c16.8-9.6,66.4-6.4,76-5.6c2.4,0,4.8,1.6,6.4,4s1.6,4.8,0,7.2c-4,8.8-26.4,53.6-42.4,63.2C323.7,318.4,316.5,320,310.1,320z"/>
	<path style="fill:#42210B;" d="M219.7,104V64c0-4.8,4-8,8-8h16V32h12.8h3.2v24h24v16h-48v24h40c4,0,8,3.2,8,8v40c0,4-4,8-8,8h-16
		v24h-16v-24h-24v-16h48v-24h-40C223.7,112,219.7,108.8,219.7,104z"/>
	<path style="fill:#42210B;" d="M170.9,488h161.6l11.2-88h-44v-16h45.6l0.8-8H156.5l0.8,8h126.4v16h-124L170.9,488z M243.7,208
		c-53.6-4-96-48.8-96-104c0-57.6,46.4-104,104-104s104,46.4,104,104c0,54.4-42.4,99.2-96,104v152h96c2.4,0,4.8,0.8,6.4,2.4
		s2.4,4,1.6,6.4l-16,128c-0.8,4-4,7.2-8,7.2h-176c-4,0-7.2-3.2-8-7.2l-16-128c0-2.4,0-4.8,1.6-6.4s4-2.4,6.4-2.4h96V208z M163.7,104
		c0,48.8,39.2,88,88,88c4.8,0,8.8,0,13.6-0.8c42.4-6.4,74.4-43.2,74.4-87.2c0-47.2-36.8-85.6-83.2-88c-1.6,0-3.2,0-4.8,0
		C202.9,16,163.7,55.2,163.7,104z"/>
	<path style="fill:#42210B;" d="M214.1,292c6.4-11.2,2.4-26.4-8.8-32.8c-7.2-4.8-33.6-4.8-55.2-4c9.6,19.2,23.2,40.8,31.2,45.6
		C193.3,307.2,207.7,303.2,214.1,292z M193.3,320c-6.4,0-13.6-1.6-20-5.6c-16.8-9.6-38.4-54.4-42.4-63.2c-0.8-2.4-0.8-4.8,0-7.2
		c1.6-2.4,4-4,6.4-4c9.6-0.8,59.2-4,76,5.6c19.2,11.2,25.6,35.2,14.4,54.4C220.5,312.8,207.7,320,193.3,320z"/>
</g>
<g>
	<polygon style="fill:#FF7D00;" points="343.7,400 320.5,400 307.7,488 331.7,488 338.9,435.2 	"/>
	<polygon style="fill:#FF7D00;" points="345.3,384 346.9,376 323.7,376 322.9,384 	"/>
	<polygon style="fill:#FF7D00;" points="180.5,384 179.7,376 156.5,376 158.1,384 	"/>
	<polygon style="fill:#FF7D00;" points="159.7,400 164.5,435.2 171.7,488 195.7,488 182.9,400 	"/>
</g>
<g>
</g>
<g>
</g>
<g>
</g>
<g>
</g>
<g>
</g>
<g>
</g>
<g>
</g>
<g>
</g>
<g>
</g>
<g>
</g>
<g>
</g>
<g>
</g>
<g>
</g>
<g>
</g>
<g>
</g>
</svg>
