<?xml version="1.0" encoding="iso-8859-1"?>
<!-- Generator: Adobe Illustrator 19.0.0, SVG Export Plug-In . SVG Version: 6.00 Build 0)  -->
<svg version="1.1" id="Layer_1" xmlns="http://www.w3.org/2000/svg" xmlns:xlink="http://www.w3.org/1999/xlink" x="0px" y="0px"
	 viewBox="0 0 511.982 511.982" style="enable-background:new 0 0 511.982 511.982;" xml:space="preserve">
<path style="fill:#434A54;" d="M143.997,255.991c-5.891,0-10.672-4.781-10.672-10.672c0-34.03,6.156-64.918,18.281-91.84
	c9.796-21.702,23.452-40.842,40.592-56.857c29.264-27.327,58.544-36.092,59.779-36.452c5.656-1.656,11.578,1.594,13.234,7.234
	c1.641,5.656-1.578,11.562-7.219,13.233l0,0c-0.266,0.078-26.358,8.046-51.951,32.264c-14.89,14.078-26.749,30.89-35.248,49.951
	c-10.703,24-16.125,51.748-16.125,82.465C154.668,251.21,149.887,255.991,143.997,255.991z"/>
<path style="fill:#ED5564;" d="M203.978,236.992l-53.326-42.67c-3.891-3.109-9.421-3.109-13.312,0l-53.326,42.67
	c-2.531,2.015-4.016,5.078-4.016,8.327v149.322c0,5.891,4.781,10.671,10.671,10.671h106.652c5.89,0,10.671-4.78,10.671-10.671
	V245.319C207.994,242.07,206.51,239.007,203.978,236.992z"/>
<path style="fill:#434A54;" d="M143.997,362.643c-5.891,0-10.672-4.781-10.672-10.656V287.99c0-5.906,4.781-10.672,10.672-10.672
	c5.89,0,10.671,4.766,10.671,10.672v63.997C154.668,357.862,149.887,362.643,143.997,362.643z"/>
<g>
	<path style="fill:#DBAFA5;" d="M249.821,16.75C241.837,6.11,230.478,0,218.666,0s-23.171,6.109-31.154,16.75
		c-7.422,9.906-11.516,22.89-11.516,36.577c0,13.547,3.953,30.858,10.297,45.154c10.812,24.39,23.577,29.515,32.373,29.515
		c8.797,0,21.562-5.125,32.374-29.515c6.359-14.296,10.296-31.607,10.296-45.154C261.336,39.64,257.242,26.656,249.821,16.75z"/>
	<path style="fill:#DBAFA5;" d="M357.332,32c-9.076,0-17.154,4.797-22.936,12.64c-1.594-6.875-4.375-13.234-8.203-18.578
		c-6.984-9.796-17.016-15.405-27.529-15.405c-10.5,0-20.547,5.609-27.531,15.405c-6.328,8.844-9.797,20.421-9.797,32.593
		s3.469,23.749,9.797,32.592c6.984,9.796,17.031,15.405,27.531,15.405c10.514,0,20.545-5.609,27.529-15.405
		c0.375-0.516,0.75-1.062,1.094-1.594c4.469,16.312,16.078,27.671,30.045,27.671c17.936,0,31.998-18.75,31.998-42.67
		C389.33,50.733,375.267,32,357.332,32z"/>
	<path style="fill:#DBAFA5;" d="M425.781,98.309c-4.951-8.25-12.404-12.984-20.451-12.984s-15.516,4.734-20.469,12.984
		c-4,6.671-6.203,15.312-6.203,24.343s2.203,17.671,6.203,24.343c4.953,8.25,12.422,13,20.469,13s15.5-4.75,20.451-13
		c4-6.672,6.203-15.312,6.203-24.343S429.781,104.981,425.781,98.309z"/>
</g>
<path style="fill:#EAC6BB;" d="M409.017,134.605c-7.578-16.562-18.422-31.217-32.219-43.545
	c-25.48-22.795-59.293-35.858-92.775-35.858c-31.781,0-59.217,11.688-77.295,32.936c-18.468,21.733-24.124,48.811-17.312,82.81
	c5.578,27.749,18.562,55.513,30.03,80.028c9.844,21.03,19.125,40.89,19.468,52.623c0.656,22.688-2.609,39.249-6.375,58.42
	c-3.187,16.171-6.796,34.498-8.843,59.825c-2.844,34.842,2.5,59.076,16.328,74.061c9.828,10.655,23.515,16.062,40.671,16.077l0,0
	c9.297,0,19.842-1.625,31.326-4.844c31.484-8.766,59.014-56.561,81.824-142.01c17.266-64.717,27.578-138.089,27.578-171.65
	C421.424,172.385,417.252,152.574,409.017,134.605z"/>
<path style="opacity:0.2;fill:#FFFFFF;enable-background:new    ;" d="M409.017,134.605c-7.578-16.562-18.422-31.217-32.219-43.545
	c-25.48-22.795-59.293-35.858-92.775-35.858c-3.594,0-7.125,0.156-10.609,0.453c29.889,2.453,59.295,15.046,82.059,35.405
	c13.797,12.328,24.623,26.983,32.217,43.545c8.234,17.969,12.406,37.78,12.406,58.873c0,33.561-10.328,106.933-27.592,171.65
	c-22.795,85.449-50.326,133.244-81.809,142.01c-7.109,1.984-13.875,3.375-20.188,4.125c3.25,0.469,6.641,0.719,10.188,0.719l0,0
	c9.297,0,19.842-1.625,31.326-4.844c31.484-8.766,59.014-56.561,81.824-142.01c17.266-64.717,27.578-138.089,27.578-171.65
	C421.424,172.385,417.252,152.574,409.017,134.605z"/>
<g>
</g>
<g>
</g>
<g>
</g>
<g>
</g>
<g>
</g>
<g>
</g>
<g>
</g>
<g>
</g>
<g>
</g>
<g>
</g>
<g>
</g>
<g>
</g>
<g>
</g>
<g>
</g>
<g>
</g>
</svg>
