<?xml version="1.0" encoding="iso-8859-1"?>
<!-- Generator: Adobe Illustrator 19.0.0, SVG Export Plug-In . SVG Version: 6.00 Build 0)  -->
<svg version="1.1" id="Layer_1" xmlns="http://www.w3.org/2000/svg" xmlns:xlink="http://www.w3.org/1999/xlink" x="0px" y="0px"
	 viewBox="0 0 512 512" style="enable-background:new 0 0 512 512;" xml:space="preserve">
<polygon style="fill:#C9E3F7;" points="54.557,75.541 491.016,75.541 440.656,218.23 491.016,360.918 54.557,360.918 "/>
<rect x="37.77" y="75.541" style="fill:#E4F1FB;" width="235.016" height="285.377"/>
<path style="fill:#3C5D76;" d="M104.918,41.967C104.918,18.79,86.128,0,62.951,0S20.984,18.79,20.984,41.967
	c0,13.73,6.594,25.917,16.787,33.574V512h50.361V75.541C98.324,67.884,104.918,55.697,104.918,41.967z"/>
<polygon style="fill:#D80027;" points="356.721,184.656 306.361,184.656 306.361,134.295 239.213,134.295 239.213,184.656 
	188.852,184.656 188.852,251.803 239.213,251.803 239.213,302.164 306.361,302.164 306.361,251.803 356.721,251.803 "/>
<polygon style="fill:#A2001D;" points="306.361,184.656 306.361,134.295 272.787,134.295 272.787,302.164 306.361,302.164 
	306.361,251.803 356.721,251.803 356.721,184.656 "/>
<g>
</g>
<g>
</g>
<g>
</g>
<g>
</g>
<g>
</g>
<g>
</g>
<g>
</g>
<g>
</g>
<g>
</g>
<g>
</g>
<g>
</g>
<g>
</g>
<g>
</g>
<g>
</g>
<g>
</g>
</svg>
