<?xml version="1.0" encoding="iso-8859-1"?>
<!-- Generator: Adobe Illustrator 19.0.0, SVG Export Plug-In . SVG Version: 6.00 Build 0)  -->
<svg version="1.1" id="Layer_1" xmlns="http://www.w3.org/2000/svg" xmlns:xlink="http://www.w3.org/1999/xlink" x="0px" y="0px"
	 viewBox="0 0 512 512" style="enable-background:new 0 0 512 512;" xml:space="preserve">
<circle style="fill:#F2F2F2;" cx="256" cy="256" r="245.801"/>
<path style="fill:#FF757C;" d="M256,10.199C120.248,10.199,10.199,120.248,10.199,256S120.248,501.801,256,501.801
	S501.801,391.752,501.801,256S391.752,10.199,256,10.199z M65.275,256c0-105.334,85.391-190.725,190.725-190.725
	c42.364,0,81.496,13.821,113.151,37.187L102.462,369.151C79.096,337.496,65.275,298.364,65.275,256z M256,446.725
	c-42.364,0-81.496-13.821-113.151-37.187L409.537,142.85c23.367,31.654,37.188,70.786,37.188,113.15
	C446.725,361.334,361.334,446.725,256,446.725z"/>
<g>
	<path style="fill:#4D4D4D;" d="M256,512c-68.38,0-132.667-26.628-181.02-74.98S0,324.38,0,256S26.628,123.333,74.98,74.98
		S187.62,0,256,0s132.667,26.628,181.02,74.98S512,187.62,512,256s-26.628,132.667-74.98,181.02S324.38,512,256,512z M256,20.398
		C126.089,20.398,20.398,126.089,20.398,256S126.089,491.602,256,491.602S491.602,385.911,491.602,256S385.911,20.398,256,20.398z
		 M256,456.924c-43.263,0-84.484-13.549-119.207-39.181c-2.39-1.763-3.891-4.483-4.113-7.444c-0.221-2.962,0.859-5.873,2.959-7.974
		l266.688-266.688c2.101-2.1,5.015-3.177,7.974-2.959c2.962,0.222,5.68,1.724,7.444,4.113c25.632,34.724,39.18,75.945,39.18,119.208
		C456.924,366.79,366.79,456.924,256,456.924z M158.717,408.094c29.022,18.638,62.412,28.432,97.283,28.432
		c99.542,0,180.526-80.984,180.526-180.526c0-34.871-9.794-68.261-28.432-97.283L158.717,408.094z M102.463,379.349
		c-0.254,0-0.508-0.009-0.762-0.029c-2.962-0.222-5.68-1.724-7.444-4.113C68.624,340.484,55.076,299.263,55.076,256
		C55.076,145.21,145.21,55.076,256,55.076c43.263,0,84.484,13.549,119.207,39.181c2.39,1.763,3.891,4.483,4.113,7.444
		c0.221,2.962-0.859,5.873-2.959,7.974L109.675,376.363C107.755,378.282,105.158,379.349,102.463,379.349z M256,75.474
		c-99.542,0-180.526,80.984-180.526,180.526c0,34.871,9.794,68.261,28.432,97.283l249.377-249.377
		C324.261,85.268,290.871,75.474,256,75.474z"/>
	<path style="fill:#4D4D4D;" d="M252.66,422.216c-5.633,0-10.199-4.566-10.199-10.199c0-5.633,4.566-10.199,10.199-10.199
		c31.844,0,62.224-9.891,87.856-28.606c4.549-3.32,10.931-2.325,14.251,2.223c3.321,4.549,2.326,10.929-2.223,14.251
		C323.396,410.968,288.857,422.216,252.66,422.216z"/>
	<path style="fill:#4D4D4D;" d="M374.869,365.131c-2.311,0-4.635-0.781-6.545-2.38c-4.317-3.618-4.885-10.05-1.269-14.368
		c1.813-2.164,3.591-4.413,5.284-6.685c3.367-4.515,9.757-5.446,14.273-2.082c4.516,3.367,5.448,9.757,2.082,14.273
		c-1.923,2.579-3.943,5.134-6.002,7.593C380.675,363.89,377.783,365.131,374.869,365.131z"/>
</g>
<g>
</g>
<g>
</g>
<g>
</g>
<g>
</g>
<g>
</g>
<g>
</g>
<g>
</g>
<g>
</g>
<g>
</g>
<g>
</g>
<g>
</g>
<g>
</g>
<g>
</g>
<g>
</g>
<g>
</g>
</svg>
