<?xml version="1.0" encoding="iso-8859-1"?>
<!-- Generator: Adobe Illustrator 19.0.0, SVG Export Plug-In . SVG Version: 6.00 Build 0)  -->
<svg version="1.1" id="Layer_1" xmlns="http://www.w3.org/2000/svg" xmlns:xlink="http://www.w3.org/1999/xlink" x="0px" y="0px"
	 viewBox="0 0 349.363 349.363" style="enable-background:new 0 0 349.363 349.363;" xml:space="preserve">
<g>
	<g>
		<rect x="155.595" y="152.027" style="fill:#B3874F;" width="38.171" height="184.195"/>
		<rect x="155.595" y="152.027" style="fill:#997443;" width="38.171" height="22.456"/>
		<g>
			<path style="fill:#D9A460;" d="M193.835,306.87c4.001,0,7.244-3.244,7.244-7.245c0-4-3.243-7.243-7.244-7.243h-38.31
				c-4.001,0-7.244,3.243-7.244,7.243c0,4.001,3.243,7.245,7.244,7.245H193.835z"/>
		</g>
	</g>
	<rect x="16.134" y="121.33" style="fill:#D9A460;" width="317.094" height="30.029"/>
	<rect x="16.134" y="143.407" style="fill:#5A3C3D;" width="317.094" height="11.952"/>
	<path style="fill:#997443;" d="M247.457,330.038H101.904c-5.335,0-9.662,4.327-9.662,9.662c0,5.337,4.326,9.663,9.662,9.663
		h145.553c5.335,0,9.662-4.326,9.662-9.663C257.119,334.365,252.792,330.038,247.457,330.038z"/>
	<g>
		
			<rect x="158.021" y="128.23" transform="matrix(-0.7071 0.7071 -0.7071 -0.7071 400.6482 123.8234)" style="fill:#FFFFFF;" width="33.318" height="33.318"/>
		<polygon style="fill:#E94F3D;" points="127.562,121.329 151.121,144.889 174.681,121.329 		"/>
		<polygon style="fill:#E94F3D;" points="174.681,121.329 198.24,144.889 221.799,121.329 		"/>
	</g>
	<g>
		<path style="fill:#5C6670;" d="M142.662,113.944h-6.663V66.541h-19.99v47.403h-6.663c-4.079,0-7.385,3.307-7.385,7.386h48.087
			C150.048,117.25,146.741,113.944,142.662,113.944z"/>
		<rect x="117.768" y="33.596" style="fill:#F2D383;" width="16.473" height="32.945"/>
		<path style="fill:#FEDD3D;" d="M134.888,20.56c0-4.906-8.884-20.56-8.884-20.56s-8.885,15.654-8.885,20.56
			c0,4.908,3.979,8.884,8.885,8.884C130.911,29.445,134.888,25.468,134.888,20.56z"/>
	</g>
	<g>
		<path style="fill:#5C6670;" d="M206.698,113.944h6.663V66.541h19.99v47.403h6.663c4.079,0,7.386,3.307,7.386,7.386h-48.087
			C199.313,117.25,202.619,113.944,206.698,113.944z"/>
		<rect x="215.121" y="33.596" style="fill:#F2D383;" width="16.473" height="32.945"/>
		<path style="fill:#FEDD3D;" d="M214.472,20.56c0-4.906,8.884-20.56,8.884-20.56s8.885,15.654,8.885,20.56
			c0,4.908-3.977,8.884-8.885,8.884C218.45,29.445,214.472,25.468,214.472,20.56z"/>
	</g>
</g>
<g>
</g>
<g>
</g>
<g>
</g>
<g>
</g>
<g>
</g>
<g>
</g>
<g>
</g>
<g>
</g>
<g>
</g>
<g>
</g>
<g>
</g>
<g>
</g>
<g>
</g>
<g>
</g>
<g>
</g>
</svg>
