<?xml version="1.0" encoding="iso-8859-1"?>
<!-- Generator: Adobe Illustrator 19.0.0, SVG Export Plug-In . SVG Version: 6.00 Build 0)  -->
<svg version="1.1" id="Layer_1" xmlns="http://www.w3.org/2000/svg" xmlns:xlink="http://www.w3.org/1999/xlink" x="0px" y="0px"
	 viewBox="0 0 512 512" style="enable-background:new 0 0 512 512;" xml:space="preserve">
<path style="fill:#F0C087;" d="M344.276,123.586h-97.722c-10.474,0-20.597,3.663-28.547,10.484
	c-15.983,13.709-41.454,33.654-76.765,42.482v17.655h203.034V123.586z"/>
<path style="fill:#FF6464;" d="M300.138,256c0,141.385,42.499,256,94.924,256h40.228c15.616,0,26.975-16.399,22.915-33.082
	l-21.398-87.938c-2.889-11.868-13.518-20.221-25.732-20.221h-34.084c-8.676,0-16.183-6.287-17.481-14.866
	c-10.023-66.218-10.023-133.568,0-199.786c1.299-8.578,8.806-14.866,17.481-14.866h34.084c12.214,0,22.844-8.353,25.732-20.221
	l21.398-87.937C462.264,16.399,450.905,0,435.289,0h-40.228C342.637,0,300.138,114.615,300.138,256z"/>
<g>
	<path style="fill:#D2555A;" d="M389.082,370.759L423.971,512h11.319c15.615,0,26.975-16.399,22.915-33.082l-21.398-87.938
		c-2.889-11.868-13.518-20.221-25.732-20.221H389.082z"/>
	<path style="fill:#D2555A;" d="M389.602,141.241h21.473c12.214,0,22.844-8.353,25.732-20.222l21.398-87.938
		C462.264,16.399,450.905,0,435.289,0h-11.318L389.602,141.241z"/>
</g>
<path style="fill:#F0C087;" d="M414.859,175.136c-0.75-14.321-13.604-25.058-27.944-25.058H211.862c0-0.009,0,26.474,0,26.474
	l-70.621,0.009v176.552h33.236c13.129,0,26.237,1.085,39.188,3.243l14.05,2.342c12.951,2.158,26.058,3.243,39.187,3.243h93.53
	c14.34,0,27.194-10.738,27.944-25.059c0.8-15.272-11.348-27.906-26.445-27.906h7.329c14.34,0,27.194-10.738,27.944-25.059
	c0.8-15.272-11.348-27.906-26.445-27.906h7.329c14.34,0,27.194-10.738,27.944-25.059c0.8-15.272-11.348-27.906-26.445-27.906h8.828
	C403.512,203.043,415.659,190.409,414.859,175.136z"/>
<path style="fill:#FF6464;" d="M131.139,361.94H63.067c-5.579,0-10.102-4.523-10.102-10.102V177.835
	c0-5.579,4.523-10.102,10.102-10.102h68.072c5.579,0,10.102,4.523,10.102,10.102v34.04v139.962
	C141.241,357.418,136.718,361.94,131.139,361.94z"/>
<circle style="fill:#EFF2FA;" cx="97.103" cy="317.793" r="17.655"/>
<path style="fill:#E6AF78;" d="M141.241,176.552v0.009v176.552h17.655V170.849C153.279,173.002,147.469,174.995,141.241,176.552z"/>
<g>
</g>
<g>
</g>
<g>
</g>
<g>
</g>
<g>
</g>
<g>
</g>
<g>
</g>
<g>
</g>
<g>
</g>
<g>
</g>
<g>
</g>
<g>
</g>
<g>
</g>
<g>
</g>
<g>
</g>
</svg>
