<?xml version="1.0" encoding="iso-8859-1"?>
<!-- Generator: Adobe Illustrator 19.0.0, SVG Export Plug-In . SVG Version: 6.00 Build 0)  -->
<svg version="1.1" id="Layer_1" xmlns="http://www.w3.org/2000/svg" xmlns:xlink="http://www.w3.org/1999/xlink" x="0px" y="0px"
	 viewBox="0 0 512 512" style="enable-background:new 0 0 512 512;" xml:space="preserve">
<path style="fill:#70E5CF;" d="M414.252,8.887H97.731c-19.288,0-34.936,15.648-34.936,34.936v424.351
	c0,19.288,15.648,34.936,34.936,34.936h316.533c19.299,0,34.936-15.648,34.936-34.936V43.847
	C449.2,24.536,433.551,8.887,414.252,8.887z"/>
<rect x="107.712" y="90.902" style="fill:#FFFFFF;" width="296.593" height="344.759"/>
<path style="fill:#F95428;" d="M346.68,50.889v40.01c0,19.359-15.696,35.054-35.054,35.054H200.381
	c-19.359,0-35.066-15.696-35.066-35.054v-40.01C165.315,50.889,346.68,50.889,346.68,50.889z"/>
<path style="fill:#35D8B9;" d="M86.11,468.174V43.823c0-19.288,15.648-34.936,34.936-34.936H97.731
	c-19.288,0-34.936,15.648-34.936,34.936v424.351c0,19.288,15.648,34.936,34.936,34.936h23.315
	C101.758,503.11,86.11,487.462,86.11,468.174z"/>
<rect x="107.712" y="90.902" style="fill:#F2F2F2;" width="28.451" height="344.759"/>
<path style="fill:#E54728;" d="M182.641,79.722V63.948c0-7.049,4.882-12.763,10.905-12.763h-18.215
	c-6.022,0-10.905,5.714-10.905,12.763v15.774c0,24.877,17.231,45.044,38.486,45.044h18.215
	C199.872,124.767,182.641,104.6,182.641,79.722z"/>
<g>
	<path style="fill:#333333;" d="M458.093,468.171V43.842C458.093,19.667,438.425,0,414.25,0H97.736
		C73.568,0,53.907,19.661,53.907,43.829v424.342c0,24.167,19.661,43.829,43.829,43.829h316.528
		C438.432,512,458.093,492.338,458.093,468.171z M440.311,468.171c0,14.362-11.684,26.047-26.047,26.047H97.736
		c-14.362,0-26.047-11.684-26.047-26.047V43.829c0-14.363,11.684-26.047,26.047-26.047h316.515c14.37,0,26.06,11.69,26.06,26.06
		V468.171z"/>
	<path style="fill:#333333;" d="M404.306,82.011h-48.734V50.889c0-4.91-3.98-8.891-8.891-8.891H165.319
		c-4.91,0-8.891,3.981-8.891,8.891v31.122h-48.72c-4.91,0-8.891,3.981-8.891,8.891V435.66c0,4.91,3.981,8.891,8.891,8.891h296.598
		c4.911,0,8.891-3.981,8.891-8.891V90.902C413.197,85.992,409.216,82.011,404.306,82.011z M174.21,59.78h163.58v31.122
		c0,14.426-11.736,26.163-26.162,26.163h-111.24c-14.434,0-26.178-11.736-26.178-26.163L174.21,59.78L174.21,59.78z
		 M395.415,426.769H116.598V99.793h40.734c4.124,19.983,21.861,35.054,43.054,35.054h111.24c21.187,0,38.918-15.071,43.04-35.054
		h40.748v326.977H395.415z"/>
	<path style="fill:#333333;" d="M200.283,142.256h-50.975c-4.91,0-8.891,3.981-8.891,8.891v50.975c0,4.91,3.981,8.891,8.891,8.891
		h50.975c4.91,0,8.891-3.981,8.891-8.891v-50.975C209.174,146.237,205.193,142.256,200.283,142.256z M191.392,193.232h-33.193
		v-33.193h33.193V193.232z"/>
	<path style="fill:#333333;" d="M226.956,202.123c0,4.91,3.981,8.891,8.891,8.891h120.918c4.911,0,8.891-3.981,8.891-8.891
		c0-4.91-3.98-8.891-8.891-8.891H235.847C230.937,193.232,226.956,197.213,226.956,202.123z"/>
	<path style="fill:#333333;" d="M200.283,229.981h-50.975c-4.91,0-8.891,3.981-8.891,8.891v50.975c0,4.91,3.981,8.891,8.891,8.891
		h50.975c4.91,0,8.891-3.981,8.891-8.891v-50.975C209.174,233.962,205.193,229.981,200.283,229.981z M191.392,280.957h-33.193
		v-33.193h33.193V280.957z"/>
	<path style="fill:#333333;" d="M356.765,280.957H235.847c-4.91,0-8.891,3.981-8.891,8.891s3.981,8.891,8.891,8.891h120.918
		c4.911,0,8.891-3.981,8.891-8.891S361.676,280.957,356.765,280.957z"/>
	<path style="fill:#333333;" d="M200.283,317.706h-50.975c-4.91,0-8.891,3.981-8.891,8.891v50.975c0,4.91,3.981,8.891,8.891,8.891
		h50.975c4.91,0,8.891-3.981,8.891-8.891v-50.975C209.174,321.687,205.193,317.706,200.283,317.706z M191.392,368.681h-33.193
		v-33.193h33.193V368.681z"/>
	<path style="fill:#333333;" d="M356.765,368.681H235.847c-4.91,0-8.891,3.981-8.891,8.891s3.981,8.891,8.891,8.891h120.918
		c4.911,0,8.891-3.981,8.891-8.891S361.676,368.681,356.765,368.681z"/>
</g>
<g>
</g>
<g>
</g>
<g>
</g>
<g>
</g>
<g>
</g>
<g>
</g>
<g>
</g>
<g>
</g>
<g>
</g>
<g>
</g>
<g>
</g>
<g>
</g>
<g>
</g>
<g>
</g>
<g>
</g>
</svg>
