<?xml version="1.0" encoding="iso-8859-1"?>
<!-- Generator: Adobe Illustrator 19.0.0, SVG Export Plug-In . SVG Version: 6.00 Build 0)  -->
<svg version="1.1" id="Layer_1" xmlns="http://www.w3.org/2000/svg" xmlns:xlink="http://www.w3.org/1999/xlink" x="0px" y="0px"
	 viewBox="0 0 508 508" style="enable-background:new 0 0 508 508;" xml:space="preserve">
<path style="fill:#F0C960;" d="M448.4,38.6H59.6C30,38.6,6,64.6,6,94.2v222.4C6,346.2,30,371,59.6,371h240.8c0.4,0,0.8,0,0.8,0.4
	l96.8,96.8v-95.6c0-1.2,1.6-1.2,2.8-1.2h47.6c29.6,0,53.6-24.8,53.6-54.4V94.6C502,64.6,478,38.6,448.4,38.6z M75.6,106.6h221.6
	c1.2,0,2,0.8,2,2s-0.8,2-2,2H75.6c-1.2,0-2-0.8-2-2S74.4,106.6,75.6,106.6z M432.4,302.6H75.2c-1.2,0-2-0.8-2-2s0.8-2,2-2h357.2
	c1.2,0,2,0.8,2,2S433.6,302.6,432.4,302.6z M73.6,236.6c0-1.2,0.8-2,2-2h83.2c1.2,0,2,0.8,2,2s-0.8,2-2,2H75.6
	C74.4,238.6,73.6,237.8,73.6,236.6z M432.4,238.6H210.8c-1.2,0-2-0.8-2-2s0.8-2,2-2h221.6c1.2,0,2,0.8,2,2S433.6,238.6,432.4,238.6z
	 M432.4,174.6H75.2c-1.2,0-2-0.8-2-2s0.8-2,2-2h357.2c1.2,0,2,0.8,2,2S433.6,174.6,432.4,174.6z M432.4,110.6h-83.2
	c-1.2,0-2-0.8-2-2s0.8-2,2-2h83.2c1.2,0,2,0.8,2,2S433.6,110.6,432.4,110.6z"/>
<path d="M400,476.2c-1.2,0-2-0.4-2.8-1.2l-98.4-98.8H59.6C26.8,376.2,0,349,0,315.8V93.4c0-33.2,27.2-61.6,59.6-61.6h388.8
	c32.4,0,59.6,28,59.6,61.6v222.4c0,32.8-27.2,60.4-59.6,60.4H404v95.6c0,1.6-0.8,3.2-2.4,3.6C401.2,476.2,400.4,476.2,400,476.2z
	 M59.6,40.6C31.6,40.6,8,65,8,94.2v222.4C8,345,31.6,369,59.6,369h240.8c1.2,0,2,0.4,2.8,1.2L396,463v-90c0-2.4,1.6-4,4-4h48.4
	c28,0,51.6-24,51.6-52.4V94.2c0-28.8-23.6-53.6-51.6-53.6H59.6z"/>
<path d="M430,176.6H74c-2.4,0-4-1.6-4-4s1.6-4,4-4h356c2.4,0,4,1.6,4,4S432.4,176.6,430,176.6z"/>
<path d="M430,240.6H214c-2.4,0-4-1.6-4-4s1.6-4,4-4h216c2.4,0,4,1.6,4,4S432.4,240.6,430,240.6z"/>
<path d="M158,240.6H74c-2.4,0-4-1.6-4-4s1.6-4,4-4h84c2.4,0,4,1.6,4,4S160.4,240.6,158,240.6z"/>
<path d="M294,112.6H74c-2.4,0-4-1.6-4-4s1.6-4,4-4h220c2.4,0,4,1.6,4,4S296.4,112.6,294,112.6z"/>
<path d="M430,112.6h-80c-2.4,0-4-1.6-4-4s1.6-4,4-4h80c2.4,0,4,1.6,4,4S432.4,112.6,430,112.6z"/>
<path d="M430,304.6H74c-2.4,0-4-1.6-4-4s1.6-4,4-4h356c2.4,0,4,1.6,4,4S432.4,304.6,430,304.6z"/>
<g>
</g>
<g>
</g>
<g>
</g>
<g>
</g>
<g>
</g>
<g>
</g>
<g>
</g>
<g>
</g>
<g>
</g>
<g>
</g>
<g>
</g>
<g>
</g>
<g>
</g>
<g>
</g>
<g>
</g>
</svg>
