<svg width="512" height="512" viewBox="0 0 512 512" fill="none" xmlns="http://www.w3.org/2000/svg">
<path d="M174.023 501.801H461.98V72.5488H50.021V377.799L174.023 501.801Z" fill="#C5CBD0"/>
<path d="M176.108 374.814L176.404 498.817L52.4021 374.814H176.108Z" fill="#FFF4DD"/>
<path d="M461.98 62.35H423.924V52.765C423.923 23.67 400.253 0 371.158 0C342.063 0 318.393 23.67 318.393 52.765V62.35H50.021C44.389 62.35 39.822 66.916 39.822 72.549V377.799C39.822 380.504 40.897 383.098 42.809 385.011L166.811 509.014C168.724 510.926 171.318 512.001 174.023 512.001H461.98C467.612 512.001 472.179 507.435 472.179 501.802V72.549C472.179 66.916 467.613 62.35 461.98 62.35ZM338.792 52.765C338.792 34.918 353.312 20.399 371.158 20.399C389.005 20.399 403.524 34.919 403.524 52.765V62.35H338.79V52.765H338.792ZM71.66 385.013H165.933L166.158 479.512L71.66 385.013ZM451.78 491.602H186.586L186.308 374.789C186.295 369.165 181.733 364.614 176.109 364.614H60.221V82.748H403.525V179.262C403.525 185.539 398.418 190.645 392.142 190.645C385.866 190.645 380.759 185.538 380.759 179.262V154.082C380.759 148.449 376.192 143.883 370.56 143.883C364.928 143.883 360.361 148.449 360.361 154.082V179.262C360.361 196.786 374.618 211.044 392.143 211.044C409.667 211.044 423.925 196.787 423.925 179.262V82.748H451.782V491.602H451.78Z" fill="#53575A"/>
<path d="M370.558 131.445C376.19 131.445 380.757 126.879 380.757 121.246V115.251C380.757 109.618 376.19 105.052 370.558 105.052C364.926 105.052 360.359 109.618 360.359 115.251V121.246C360.359 126.879 364.926 131.445 370.558 131.445Z" fill="#4C1D1D"/>
</svg>
