<?xml version="1.0" encoding="iso-8859-1"?>
<!-- Generator: Adobe Illustrator 19.0.0, SVG Export Plug-In . SVG Version: 6.00 Build 0)  -->
<svg version="1.1" id="Layer_1" xmlns="http://www.w3.org/2000/svg" xmlns:xlink="http://www.w3.org/1999/xlink" x="0px" y="0px"
	 viewBox="0 0 512 512" style="enable-background:new 0 0 512 512;" xml:space="preserve">
<path style="fill:#FFD652;" d="M367.437,42.325c-21.302,0-38.574,17.273-38.574,38.574v-1.254V46.611
	c0-21.302-17.273-38.574-38.574-38.574s-38.574,17.273-38.574,38.574v11.604v1.254c0-21.302-17.273-38.574-38.574-38.574
	s-38.574,17.273-38.574,38.574v45.893v1.254c0-21.302-17.273-38.574-38.574-38.574s-38.574,17.273-38.574,38.574v397.348h308.595
	V80.899C406.012,59.597,388.739,42.325,367.437,42.325z"/>
<path style="fill:#FB9D46;" d="M97.416,92.534c-1.713,4.364,0,411.43,0,411.43h308.595V92.534H97.416z"/>
<rect x="45.984" y="109.648" style="fill:#AFF078;" width="420.032" height="214.302"/>
<g>
	<rect x="45.984" y="109.648" style="fill:#5AC779;" width="51.433" height="214.302"/>
	<circle style="fill:#5AC779;" cx="255.995" cy="216.799" r="85.721"/>
</g>
<path style="fill:#00A085;" d="M284.931,273.589c-47.343,0-85.721-38.378-85.721-85.721c0-16.256,4.526-31.454,12.385-44.406
	c-24.767,15.029-41.315,42.25-41.315,73.336c0,47.343,38.378,85.721,85.721,85.721c31.087,0,58.307-16.548,73.336-41.315
	C316.385,269.063,301.187,273.589,284.931,273.589z"/>
<path style="fill:#FFD652;" d="M406.012,240.372c0-17.754-14.391-32.145-32.145-32.145h-17.144
	c-17.754,0-32.145,14.391-32.145,32.145v83.578H204.567c-59.177,0-107.151,47.974-107.151,107.151l0,0v72.863h227.16h81.435V240.372
	z"/>
<path d="M466.016,101.611h-51.968V80.899c0-25.701-20.909-46.611-46.611-46.611c-11.674,0-22.36,4.314-30.547,11.432
	C336.414,20.429,315.692,0,290.288,0c-19.106,0-35.565,11.555-42.752,28.045c-8.529-9.328-20.792-15.187-34.397-15.187
	c-25.701,0-46.611,20.909-46.611,46.611v11.96c-8.186-7.114-18.867-11.424-30.538-11.424c-24.01,0-43.833,18.251-46.339,41.607
	H45.984c-4.439,0-8.036,3.598-8.036,8.036V323.95c0,4.438,3.597,8.036,8.036,8.036H89.38v171.977c0,4.438,3.597,8.036,8.036,8.036
	h205.73c4.439,0,8.036-3.598,8.036-8.036s-3.597-8.036-8.036-8.036H105.453v-64.826c0-54.652,44.462-99.115,99.115-99.115h120.009
	c4.439,0,8.036-3.598,8.036-8.036v-83.578c0-13.294,10.816-24.109,24.109-24.109h17.144c13.293,0,24.109,10.815,24.109,24.109
	v255.555h-56.254c-4.439,0-8.036,3.598-8.036,8.036s3.597,8.036,8.036,8.036h64.291c4.439,0,8.036-3.598,8.036-8.036V331.986h51.968
	c4.439,0,8.036-3.598,8.036-8.036V109.648C474.052,105.21,470.455,101.611,466.016,101.611z M367.437,50.361
	c16.839,0,30.538,13.699,30.538,30.538v20.712h-61.076V80.899C336.899,64.06,350.598,50.361,367.437,50.361z M259.75,46.611
	c0-16.839,13.699-30.538,30.538-30.538c16.839,0,30.538,13.699,30.538,30.538v33.035v1.254v20.712H259.75V59.469v-1.254V46.611
	L259.75,46.611z M135.991,76.077c15.134,0,27.725,11.069,30.121,25.534H105.87C108.265,87.146,120.857,76.077,135.991,76.077z
	 M105.453,372.476v-40.49h40.49C129.295,341.871,115.337,355.828,105.453,372.476z M316.54,240.372v25.108
	c-14.843,18.433-36.896,29.004-60.54,29.004c-42.836,0-77.685-34.849-77.685-77.685s34.849-77.685,77.685-77.685
	c39.718,0,72.671,29.472,77.157,68.741C323.098,215.165,316.54,227.015,316.54,240.372z M457.98,315.914h-43.932v-9.67
	c0.178,0.012,0.355,0.027,0.536,0.027H440.3c4.439,0,8.036-3.598,8.036-8.036s-3.597-8.036-8.036-8.036h-25.716
	c-0.181,0-0.358,0.015-0.536,0.027v-49.852c0-22.157-18.025-40.182-40.182-40.182h-17.144c-2.848,0-5.625,0.302-8.308,0.869
	c-3.48-20.561-13.722-39.405-29.298-53.592c-17.293-15.751-39.708-24.425-63.115-24.425c-51.698,0-93.757,42.059-93.757,93.757
	s42.059,93.757,93.757,93.757c22.477,0,43.763-7.916,60.54-22.148v27.506H54.02V117.685h141.975c4.439,0,8.036-3.598,8.036-8.036
	s-3.597-8.036-8.036-8.036h-13.394V59.469c0-16.839,13.699-30.538,30.538-30.538s30.538,13.699,30.538,30.538v42.143h-11.251
	c-4.439,0-8.036,3.598-8.036,8.036c0,4.438,3.597,8.036,8.036,8.036H457.98L457.98,315.914L457.98,315.914z"/>
<path d="M371.723,151.972H440.3c4.439,0,8.036-3.598,8.036-8.036c0-4.438-3.597-8.036-8.036-8.036h-68.577
	c-4.439,0-8.036,3.598-8.036,8.036C363.687,148.374,367.284,151.972,371.723,151.972z"/>
<path d="M440.3,170.188h-51.433c-4.439,0-8.036,3.598-8.036,8.036c0,4.438,3.597,8.036,8.036,8.036H440.3
	c4.439,0,8.036-3.598,8.036-8.036C448.336,173.786,444.739,170.188,440.3,170.188z"/>
<path d="M71.7,151.972h68.577c4.439,0,8.036-3.598,8.036-8.036c0-4.438-3.597-8.036-8.036-8.036H71.7
	c-4.439,0-8.036,3.598-8.036,8.036C63.664,148.374,67.261,151.972,71.7,151.972z"/>
<path d="M71.7,186.261h51.433c4.439,0,8.036-3.598,8.036-8.036c0-4.438-3.597-8.036-8.036-8.036H71.7
	c-4.439,0-8.036,3.598-8.036,8.036C63.664,182.663,67.261,186.261,71.7,186.261z"/>
<path d="M97.416,290.197H71.7c-4.439,0-8.036,3.598-8.036,8.036s3.597,8.036,8.036,8.036h25.716c4.439,0,8.036-3.598,8.036-8.036
	S101.856,290.197,97.416,290.197z"/>
<path d="M131.705,290.197c-4.439,0-8.036,3.598-8.036,8.036s3.597,8.036,8.036,8.036h25.716c4.439,0,8.036-3.598,8.036-8.036
	s-3.597-8.036-8.036-8.036H131.705z"/>
<path d="M131.169,233.943c0-11.521-9.374-20.894-20.894-20.894s-20.894,9.374-20.894,20.894c0,11.521,9.374,20.894,20.894,20.894
	S131.169,245.465,131.169,233.943z M110.275,238.765c-2.658,0-4.822-2.163-4.822-4.822c0-2.658,2.163-4.822,4.822-4.822
	c2.658,0,4.822,2.163,4.822,4.822C115.096,236.601,112.933,238.765,110.275,238.765z"/>
<path d="M286.002,170.188h-21.966v-9.108c0-4.438-3.597-8.036-8.036-8.036c-4.439,0-8.036,3.598-8.036,8.036v9.108h-6.965
	c-10.339,0-18.751,8.412-18.751,18.751v17.144c0,10.339,8.412,18.751,18.751,18.751h6.965v22.502h-21.966
	c-4.439,0-8.036,3.598-8.036,8.036s3.597,8.036,8.036,8.036h21.966v9.108c0,4.438,3.597,8.036,8.036,8.036
	c4.439,0,8.036-3.598,8.036-8.036v-9.108h6.965c10.339,0,18.751-8.412,18.751-18.751v-17.144c0-10.339-8.412-18.751-18.751-18.751
	h-6.965v-22.502h21.966c4.439,0,8.036-3.598,8.036-8.036C294.039,173.786,290.442,170.188,286.002,170.188z M271.001,224.835
	c1.478,0,2.679,1.202,2.679,2.679v17.144c0,1.477-1.201,2.679-2.679,2.679h-6.965v-22.502H271.001z M247.964,208.762h-6.965
	c-1.478,0-2.679-1.202-2.679-2.679v-17.144c0-1.477,1.201-2.679,2.679-2.679h6.965V208.762z"/>
<g>
</g>
<g>
</g>
<g>
</g>
<g>
</g>
<g>
</g>
<g>
</g>
<g>
</g>
<g>
</g>
<g>
</g>
<g>
</g>
<g>
</g>
<g>
</g>
<g>
</g>
<g>
</g>
<g>
</g>
</svg>
