<?xml version="1.0" encoding="iso-8859-1"?>
<!-- Generator: Adobe Illustrator 19.0.0, SVG Export Plug-In . SVG Version: 6.00 Build 0)  -->
<svg version="1.1" id="Layer_1"
    xmlns="http://www.w3.org/2000/svg"
    xmlns:xlink="http://www.w3.org/1999/xlink" x="0px" y="0px"
	 viewBox="0 0 512 512" style="enable-background:new 0 0 512 512;" xml:space="preserve">
    <rect x="4" y="74.393" style="fill:#FFFFFF;" width="384.273" height="325.606"/>
    <g>
        <path style="fill:#CCCCCC;" d="M384.27,78.396v317.599H8V78.396H384.27 M392.27,70.396H0v333.598h392.27V70.396z"/>
        <rect x="51.592" y="233.191" style="fill:#CCCCCC;" width="289.089" height="8"/>
        <rect x="51.592" y="184.418" style="fill:#CCCCCC;" width="289.089" height="8"/>
        <rect x="51.592" y="135.646" style="fill:#CCCCCC;" width="289.089" height="8"/>
        <rect x="51.592" y="330.756" style="fill:#CCCCCC;" width="289.089" height="8"/>
        <rect x="51.592" y="281.983" style="fill:#CCCCCC;" width="289.089" height="8"/>
    </g>
    <rect x="392.573" y="320.155" transform="matrix(0.7071 -0.7071 0.7071 0.7071 -117.8922 383.4033)" style="fill:#B18B1E;" width="22.578" height="27.711"/>
    <rect x="397.604" y="339.005" transform="matrix(0.7071 -0.7071 0.7071 0.7071 -126.4635 404.5157)" width="54.915" height="31.816"/>
    <rect x="437.004" y="354.293" transform="matrix(0.7071 -0.7071 0.7071 0.7071 -142.6085 443.8426)" style="fill:#B18B1E;" width="54.915" height="79.544"/>
    <circle cx="321.096" cy="233.842" r="120.6"/>
    <circle style="fill:#EFEFEF;" cx="321.096" cy="233.842" r="101.618"/>
    <path style="fill:#B18B1E;" d="M312.375,300.484V284.98c-9.734-0.268-19.291-2.666-28-7.024l4.944-19.112
	c8.381,4.596,17.762,7.069,27.32,7.2c9.375,0,15.792-3.592,15.792-10.12c0-6.208-5.264-10.136-17.44-14.216
	c-17.6-5.88-29.6-14.048-29.6-29.888c0-14.4,10.207-25.64,27.815-29.072v-15.552h16.12v14.4c8.241,0.122,16.368,1.957,23.863,5.384
	l-4.799,18.464c-7.383-3.604-15.48-5.504-23.696-5.56c-10.688,0-14.144,4.576-14.144,9.152c0,5.384,5.76,8.8,19.744,14.048
	c19.576,6.864,27.48,15.84,27.48,30.552c0,14.536-10.4,26.944-29.288,30.216v16.655L312.375,300.484z"/>
    <g></g>
    <g></g>
    <g></g>
    <g></g>
    <g></g>
    <g></g>
    <g></g>
    <g></g>
    <g></g>
    <g></g>
    <g></g>
    <g></g>
    <g></g>
    <g></g>
    <g></g>
</svg>
