<?xml version="1.0" encoding="iso-8859-1"?>
<!-- Generator: Adobe Illustrator 19.0.0, SVG Export Plug-In . SVG Version: 6.00 Build 0)  -->
<svg version="1.1" id="Layer_1" xmlns="http://www.w3.org/2000/svg" xmlns:xlink="http://www.w3.org/1999/xlink" x="0px" y="0px"
	 viewBox="0 0 512.001 512.001" style="enable-background:new 0 0 512.001 512.001;" xml:space="preserve">
<g>
	<rect x="348.315" y="290.037" style="fill:#CFF09E;" width="87.23" height="66.389"/>
	<rect x="348.315" y="356.426" style="fill:#CFF09E;" width="87.23" height="66.389"/>
</g>
<g>
	<path style="fill:#507C5C;" d="M435.543,275.647h-29.235v-21.065c0-7.943-6.44-14.382-14.382-14.382h-43.618
		c-7.942,0-14.382,6.439-14.382,14.382c0,7.943,6.44,14.382,14.382,14.382h29.235v6.682h-29.235
		c-7.942,0-14.382,6.439-14.382,14.382v66.395v66.395c0,7.943,6.44,14.382,14.382,14.382h29.235v12.959
		c0,18.237-14.837,33.075-33.075,33.075H123.916c-18.238,0-33.075-14.837-33.075-33.075V268.965h193.923
		c7.942,0,14.382-6.439,14.382-14.382c0-7.943-6.44-14.382-14.382-14.382H76.459c-7.942,0-14.382,6.439-14.382,14.382v195.579
		c0,34.098,27.741,61.84,61.84,61.84h220.551c34.099,0,61.84-27.741,61.84-61.84v-12.959h29.235c7.942,0,14.382-6.439,14.382-14.382
		v-66.395V290.03C449.925,282.086,443.485,275.647,435.543,275.647z M362.688,304.412h29.235h29.235v37.63h-58.47L362.688,304.412
		L362.688,304.412z M421.16,408.436h-29.235H362.69v-37.63h58.47V408.436z"/>
	<path style="fill:#507C5C;" d="M334.87,212.881c-7.942,0-14.382-6.439-14.382-14.382V115.06c0-47.583-38.712-86.295-86.295-86.295
		s-86.295,38.712-86.295,86.295v83.438c0,7.943-6.44,14.382-14.382,14.382c-7.942,0-14.382-6.439-14.382-14.382V115.06
		C119.133,51.616,170.749,0,234.193,0s115.06,51.616,115.06,115.06v83.438C349.252,206.442,342.812,212.881,334.87,212.881z"/>
</g>
<path style="fill:#CFF09E;" d="M223.584,369.825l-32.677-32.677l-33.222,33.222l32.677,32.677l20.895,20.895
	c6.535,6.535,17.121,6.567,23.695,0.07l75.748-74.858l-33.222-33.222L223.584,369.825z"/>
<path style="fill:#507C5C;" d="M223.14,443.246c-8.332,0-16.163-3.243-22.054-9.134l-53.572-53.572
	c-2.697-2.697-4.213-6.356-4.213-10.17c0-3.814,1.516-7.473,4.213-10.17l33.222-33.222c2.698-2.697,6.356-4.213,10.17-4.213
	c3.814,0,7.472,1.516,10.17,4.213l22.507,22.509l43.723-43.724c2.698-2.697,6.356-4.213,10.17-4.213
	c3.814,0,7.472,1.516,10.17,4.213l33.222,33.222c2.708,2.708,4.224,6.383,4.213,10.213c-0.012,3.829-1.549,7.495-4.273,10.187
	l-75.748,74.858C239.185,440.047,231.399,443.246,223.14,443.246z M178.025,370.37l43.402,43.402
	c0.585,0.587,1.256,0.709,1.713,0.709c0.452,0,1.116-0.121,1.701-0.699l65.459-64.689l-12.822-12.822l-43.723,43.724
	c-5.618,5.616-14.722,5.616-20.341,0l-22.507-22.509L178.025,370.37z"/>
<g>
</g>
<g>
</g>
<g>
</g>
<g>
</g>
<g>
</g>
<g>
</g>
<g>
</g>
<g>
</g>
<g>
</g>
<g>
</g>
<g>
</g>
<g>
</g>
<g>
</g>
<g>
</g>
<g>
</g>
</svg>
