<?xml version="1.0" encoding="iso-8859-1"?>
<!-- Generator: Adobe Illustrator 19.0.0, SVG Export Plug-In . SVG Version: 6.00 Build 0)  -->
<svg version="1.1" id="Layer_1" xmlns="http://www.w3.org/2000/svg" xmlns:xlink="http://www.w3.org/1999/xlink" x="0px" y="0px"
	 viewBox="0 0 392.598 392.598" style="enable-background:new 0 0 392.598 392.598;" xml:space="preserve">
<path style="fill:#FFFFFF;" d="M314.085,41.115c-8.857-12.024-23.208-19.265-38.141-19.265c-14.933,0-29.285,7.176-38.141,19.265
	l-45.899,62.125c-7.111,9.568-10.796,20.945-10.796,32.905v223.806c0,6.012,4.848,10.925,10.925,10.925h167.822
	c6.012,0,10.925-4.848,10.925-10.925V136.081c0-11.895-3.685-23.337-10.796-32.905L314.085,41.115z"/>
<path style="fill:#FFC10D;" d="M119.111,341.527c4.719,1.293,7.952,5.624,7.952,10.537v18.683l34.069,0.129
	c-1.228-3.491-1.939-7.176-1.939-11.055v-54.626c-4.331,1.034-8.792,1.487-13.317,1.487c-33.099,0-60.057-26.893-60.057-60.057
	c0-33.099,26.893-59.992,60.057-59.992c4.461,0,8.986,0.517,13.317,1.487v-52.105c0-4.59,0.453-9.115,1.228-13.511l-33.293,0.065
	v18.747c0,4.848-3.232,9.18-7.952,10.537c-7.564,2.133-14.739,5.107-21.398,8.792c-4.267,2.392-9.568,1.616-13.059-1.745
	l-13.188-13.188l-26.634,26.505l13.059,13.123c3.491,3.491,4.202,8.792,1.745,13.059c-3.685,6.659-6.723,13.834-8.792,21.398
	c-1.293,4.719-5.624,7.952-10.537,7.952H21.818v37.689h18.683c4.848,0,9.18,3.232,10.537,7.952
	c2.133,7.564,5.107,14.739,8.792,21.398c2.392,4.267,1.616,9.568-1.745,13.059l-13.188,13.188l26.57,26.634l13.188-13.123
	c3.491-3.491,8.792-4.202,13.059-1.745C104.372,336.42,111.612,339.459,119.111,341.527z"/>
<path style="fill:#FFFFFF;" d="M107.733,246.626c0,21.075,17.131,38.141,38.141,38.141c4.59,0,9.051-0.84,13.317-2.457v-71.37
	c-4.267-1.616-8.727-2.457-13.317-2.457C124.8,208.485,107.733,225.616,107.733,246.626z"/>
<path style="fill:#194F82;" d="M377.503,90.246l-45.899-62.125C318.61,10.473,297.729,0,275.879,0
	c-21.851,0-42.731,10.537-55.725,28.121l-45.899,62.125c-2.457,3.426-4.719,6.853-6.594,10.602h-51.523
	c-6.012,0-10.925,4.848-10.925,10.925v21.657c-3.685,1.293-7.37,2.78-10.796,4.461L79.16,122.57c-4.267-4.267-11.119-4.267-15.451,0
	l-42.02,42.02c-4.267,4.655-4.267,11.184,0,15.451l15.321,15.321c-1.616,3.491-3.168,7.111-4.461,10.796H10.828
	c-5.947-0.129-10.796,4.784-10.796,10.796v59.475c0,6.012,4.848,10.925,10.925,10.925h21.657c1.293,3.685,2.78,7.37,4.461,10.796
	l-15.321,15.257c-4.267,4.267-4.267,11.119,0,15.451l42.02,42.02c4.267,4.267,11.119,4.267,15.451,0l15.321-15.321
	c3.556,1.616,7.111,3.168,10.796,4.461v21.657c0,6.012,4.848,10.925,10.925,10.925h243.588c18.036,0,32.711-14.675,32.711-32.711
	V136.081C392.566,119.467,387.329,103.628,377.503,90.246z M370.78,359.822c0,6.012-4.848,10.925-10.925,10.925H191.903
	c-6.012,0-10.925-4.848-10.925-10.925V136.081c0-11.895,3.685-23.337,10.796-32.905l45.899-62.125
	c8.857-12.024,23.208-19.265,38.141-19.265c14.933,0,29.285,7.176,38.141,19.265l45.899,62.125
	c7.111,9.568,10.796,20.945,10.796,32.905v223.741H370.78z M84.655,334.481l-13.188,13.123l-26.634-26.57l13.123-13.188
	c3.491-3.491,4.202-8.792,1.745-13.059c-3.685-6.659-6.723-13.834-8.792-21.398c-1.293-4.719-5.624-7.952-10.537-7.952H21.818
	v-37.624h18.683c4.848,0,9.18-3.232,10.537-7.952c2.133-7.564,5.107-14.739,8.792-21.398c2.392-4.267,1.616-9.568-1.745-13.059
	l-13.123-13.123l26.57-26.57l13.188,13.123c3.491,3.491,8.792,4.202,13.059,1.745c6.659-3.685,13.834-6.723,21.398-8.792
	c4.719-1.293,7.952-5.624,7.952-10.537V122.57l33.293-0.065c-0.776,4.396-1.228,8.986-1.228,13.511v52.105
	c-4.331-1.034-8.792-1.487-13.317-1.487c-33.099,0-60.057,26.893-60.057,59.992s26.893,60.057,60.057,60.057
	c4.461,0,8.986-0.517,13.317-1.487v54.626c0,3.879,0.711,7.564,1.939,11.055l-34.069-0.129v-18.683c0-4.848-3.232-9.18-7.952-10.537
	c-7.564-2.133-14.739-5.107-21.398-8.792C93.446,330.343,88.145,331.055,84.655,334.481z M159.192,210.941v71.499
	c-4.267,1.616-8.727,2.457-13.317,2.457c-21.075,0-38.141-17.131-38.141-38.141c0-21.075,17.131-38.141,38.141-38.141
	C150.465,208.485,154.99,209.325,159.192,210.941z"/>
<path style="fill:#56ACE0;" d="M202.764,157.867v169.244c0,12.024,9.762,21.786,21.786,21.786h102.529
	c12.024,0,21.786-9.762,21.786-21.786V157.867c0-12.024-9.762-21.786-21.786-21.786H224.55
	C212.59,136.081,202.764,145.778,202.764,157.867z"/>
<path style="fill:#FFC10D;" d="M275.879,70.853c-8.21,0-14.869,6.659-14.869,14.804c0,8.21,6.659,14.804,14.869,14.804
	s14.869-6.659,14.869-14.804S284.089,70.853,275.879,70.853z"/>
<g>
	<path style="fill:#194F82;" d="M275.879,49.067c-20.234,0-36.719,16.485-36.719,36.719s16.485,36.719,36.719,36.719
		s36.719-16.485,36.719-36.719S296.113,49.067,275.879,49.067z M275.879,100.59c-8.21,0-14.869-6.659-14.869-14.804
		s6.659-14.804,14.869-14.804s14.869,6.659,14.869,14.804S284.089,100.59,275.879,100.59z"/>
	<path style="fill:#194F82;" d="M234.764,147.459c-6.012,0-10.925,4.848-10.925,10.925v168.275c0,6.012,4.848,10.925,10.925,10.925
		c6.012,0,10.925-4.848,10.925-10.925V158.319C245.689,152.307,240.84,147.459,234.764,147.459z"/>
	<path style="fill:#194F82;" d="M316.929,147.459c-6.012,0-10.925,4.848-10.925,10.925v168.275c0,6.012,4.848,10.925,10.925,10.925
		c6.012,0,10.925-4.848,10.925-10.925V158.319C327.919,152.307,322.941,147.459,316.929,147.459z"/>
</g>
<g>
</g>
<g>
</g>
<g>
</g>
<g>
</g>
<g>
</g>
<g>
</g>
<g>
</g>
<g>
</g>
<g>
</g>
<g>
</g>
<g>
</g>
<g>
</g>
<g>
</g>
<g>
</g>
<g>
</g>
</svg>
