<?xml version="1.0" encoding="iso-8859-1"?>
<!-- Generator: Adobe Illustrator 19.0.0, SVG Export Plug-In . SVG Version: 6.00 Build 0)  -->
<svg version="1.1" id="Layer_1" xmlns="http://www.w3.org/2000/svg" xmlns:xlink="http://www.w3.org/1999/xlink" x="0px" y="0px"
	 viewBox="0 0 497.15 497.15" style="enable-background:new 0 0 497.15 497.15;" xml:space="preserve">
<path style="fill:#0EE0B8;" d="M291.07,77.373H24.862c-11.311,0-20.472,9.169-20.472,20.48v272.778L135.942,497.15h155.12
	c11.319,0,20.48-9.169,20.48-20.48V97.853C311.542,86.542,302.381,77.373,291.07,77.373z"/>
<path style="fill:#C5D8D7;" d="M291.07,77.373H24.862c-11.311,0-20.472,9.169-20.472,20.48v272.778L135.942,497.15h155.12
	c11.319,0,20.48-9.169,20.48-20.48V97.853C311.542,86.542,302.381,77.373,291.07,77.373z"/>
<g>
	<path style="fill:#B6C6C6;" d="M311.542,404.525V97.853c0-11.311-9.161-20.48-20.48-20.48H24.862
		c-11.311,0-20.472,9.169-20.472,20.48"/>
	<path style="fill:#B6C6C6;" d="M119.329,375.255v102.116c0,1.465,0.189,2.883,0.496,4.277l15.738,15.139
		c1.15,0.205,2.332,0.362,3.545,0.362h107.118L119.479,375.255H119.329z"/>
</g>
<g>
	<path style="fill:#ACC1C1;" d="M119.329,375.255v102.116c0,1.465,0.189,2.883,0.496,4.277l15.738,15.139
		c1.15,0.205,2.332,0.362,3.545,0.362h54.65l-61.164-102.227L119.329,375.255z"/>
	<path style="fill:#ACC1C1;" d="M135.942,497.15h0.158V391.363c0-11.319-9.169-20.472-20.48-20.472H4.626L135.942,497.15z"/>
</g>
<g>
	<polyline style="fill:#93A4A5;" points="4.626,370.891 135.942,497.15 136.099,497.15 136.099,391.363 	"/>
	<path style="fill:#93A4A5;" d="M263.564,159.498c0,2.883-2.662,5.222-5.908,5.222H58.283c-3.253,0-5.9-2.332-5.9-5.222l0,0
		c0-2.883,2.647-5.215,5.9-5.215h199.381C260.901,154.283,263.564,156.615,263.564,159.498L263.564,159.498z"/>
	<path style="fill:#93A4A5;" d="M263.564,199.914c0,2.875-2.662,5.222-5.908,5.222H58.283c-3.253,0-5.9-2.339-5.9-5.222l0,0
		c0-2.875,2.647-5.222,5.9-5.222h199.381C260.901,194.692,263.564,197.039,263.564,199.914L263.564,199.914z"/>
	<path style="fill:#93A4A5;" d="M263.564,240.331c0,2.883-2.662,5.222-5.908,5.222H58.283c-3.253,0-5.9-2.339-5.9-5.222l0,0
		c0-2.875,2.647-5.215,5.9-5.215h199.381C260.901,235.116,263.564,237.448,263.564,240.331L263.564,240.331z"/>
	<path style="fill:#93A4A5;" d="M263.564,280.747c0,2.867-2.662,5.215-5.908,5.215H58.283c-3.253,0-5.9-2.347-5.9-5.215l0,0
		c0-2.883,2.647-5.222,5.9-5.222h199.381C260.901,275.525,263.564,277.864,263.564,280.747L263.564,280.747z"/>
	<path style="fill:#93A4A5;" d="M263.564,321.156c0,2.883-2.662,5.222-5.908,5.222H58.283c-3.253,0-5.9-2.339-5.9-5.222l0,0
		c0-2.867,2.647-5.215,5.9-5.215h199.381C260.901,315.941,263.564,318.289,263.564,321.156L263.564,321.156z"/>
</g>
<path style="fill:#EFBE25;" d="M460.463,42.919c-2.93,2.93-7.696,2.93-10.626,0l0,0c-2.93-2.93-2.93-7.696,0-10.618l30.106-30.098
	c2.922-2.938,7.688-2.938,10.618,0l0,0c2.914,2.938,2.93,7.68,0,10.618L460.463,42.919z"/>
<path style="fill:#D8A107;" d="M490.569,2.204L490.569,2.204c2.914,2.938,2.93,7.68,0,10.618l-30.106,30.098
	c-2.93,2.93-7.696,2.93-10.626,0l0,0"/>
<ellipse transform="matrix(0.7073 -0.707 0.707 0.7073 -10.0088 284.465)" style="fill:#255160;" cx="338.478" cy="154.318" rx="187.766" ry="25.869"/>
<path style="fill:#12353D;" d="M471.223,21.526c10.106,10.106-41.141,77.737-114.46,151.056s-140.95,124.566-151.056,114.46"/>
<path style="fill:#EFBE25;" d="M229.709,237.865c-19.338,25.907-28.893,44.3-24.009,49.176c4.884,4.884,23.284-4.655,49.176-24.001
	L229.709,237.865z"/>
<path style="fill:#D6A312;" d="M209.898,288.152c0.677-0.032,1.252,0.024,2.024-0.11c0.914-0.173,2.016-0.559,3.064-0.898
	c0.607-0.173,1.119-0.284,1.764-0.528c1.371-0.504,2.93-1.229,4.506-1.985c0.449-0.205,0.851-0.354,1.315-0.591
	c1.851-0.914,3.844-2.016,5.939-3.206c0.284-0.173,0.551-0.307,0.866-0.488c2.269-1.339,4.703-2.851,7.263-4.49
	c0.134-0.087,0.26-0.173,0.402-0.252c2.678-1.741,5.482-3.647,8.428-5.711c0.039-0.031,0.055-0.047,0.087-0.079
	c2.977-2.103,6.105-4.356,9.334-6.751v-0.016l-12.587-12.595l-36.596,36.596c0.614,0.614,1.457,0.992,2.489,1.15
	C208.701,288.286,209.339,288.167,209.898,288.152z"/>
<ellipse transform="matrix(0.7071 -0.7071 0.7071 0.7071 -143.0723 229.3717)" style="fill:#BC8808;" cx="205.34" cy="287.389" rx="4.072" ry="2.505"/>
<path style="fill:#12353D;" d="M350.407,191.006c-1.953-1.953-1.953-5.12,0-7.081c1.961-1.953,5.12-1.953,7.089,0
	c1.938,1.961,5.112,1.961,7.066,0l93.68-93.672c1.946-1.946,1.946-5.12,0-7.081l-16.51-16.51
	c-1.953-1.953,5.254-12.335,7.207-14.289c1.953-1.969,5.12-1.953,7.089,0l16.51,16.51c5.853,5.868,5.853,15.392,0.016,21.244
	L371.651,191.021C365.783,196.874,356.259,196.874,350.407,191.006z"/>
<path style="fill:#93A4A5;" d="M263.564,401.642c0,4.246-3.442,7.696-7.696,7.696h-15.384c-4.246,0-7.688-3.45-7.688-7.696v-15.384
	c0-4.254,3.442-7.688,7.688-7.688h15.384c4.254,0,7.696,3.434,7.696,7.688V401.642z"/>
<g>
</g>
<g>
</g>
<g>
</g>
<g>
</g>
<g>
</g>
<g>
</g>
<g>
</g>
<g>
</g>
<g>
</g>
<g>
</g>
<g>
</g>
<g>
</g>
<g>
</g>
<g>
</g>
<g>
</g>
</svg>
